<svg xmlns="http://www.w3.org/2000/svg" xmlns:xlink="http://www.w3.org/1999/xlink" x="0" y="0" width="862" height="463" style="
        width:862px;
        height:463px;
        background: #FFF;
        fill: none;
">
        <svg xmlns="http://www.w3.org/2000/svg"/>
        
        <svg xmlns="http://www.w3.org/2000/svg" class="role-diagram-draw-area"><g class="shapes-region" style="stroke: black; fill: none;"><g class="grouped-shape"><g class="composite-shape"><path class="real" d=" M518.33,197.12 C518.33,172.51 538.28,152.56 562.89,152.56 C587.5,152.56 607.46,172.51 607.46,197.12 C607.46,221.73 587.5,241.69 562.89,241.69 C538.28,241.69 518.33,221.73 518.33,197.12 Z" style="stroke-width: 2; stroke: rgb(0, 0, 0); stroke-opacity: 1; fill: rgb(255, 255, 255); fill-opacity: 1; stroke-dasharray: 2.25, 3.685;"/></g><g class="composite-shape"><path class="real" d=" M749.32,327.54 C749.32,311.64 762.21,298.75 778.11,298.75 C794,298.75 806.89,311.64 806.89,327.54 C806.89,343.43 794,356.32 778.11,356.32 C762.21,356.32 749.32,343.43 749.32,327.54 Z" style="stroke-width: 2; stroke: rgb(245, 166, 35); stroke-opacity: 1; fill: rgb(248, 231, 28); fill-opacity: 1;"/></g><g class="composite-shape"><path class="real" d=" M768,310.62 C768,307.64 770.42,305.22 773.4,305.22 L789.6,305.22 C792.59,305.22 795,307.64 795,310.62 L795,337.82 C795,340.8 792.59,343.22 789.6,343.22 L773.4,343.22 C770.42,343.22 768,340.8 768,337.82 Z" style="stroke-width: 1; stroke: rgb(255, 255, 255); stroke-opacity: 1; fill: none; fill-opacity: 1;"/></g><g class="arrow-line"><path class="connection real" stroke-dasharray="" d="  M771.38,313.42 L787.81,313.67" style="stroke: rgb(208, 2, 27); stroke-opacity: 1; stroke-width: 3; fill: none; fill-opacity: 1;"/><g stroke="none" fill="rgb(208,2,27)" fill-opacity="1" transform="matrix(-0.9998899589753325,-0.014834754474138246,0.014834754474138246,-0.9998899589753325,792.8141837347221,313.7434345938942)" style="stroke: none; fill: rgb(208, 2, 27); stroke-width: 3;"><path d=" M11.43,-5.49 L0,0 L11.43,5.49 Z"/></g></g><g class="arrow-line"><path class="connection real" stroke-dasharray="" d="  M771.38,336.42 L787.81,336.67" style="stroke: rgb(74, 144, 226); stroke-opacity: 1; stroke-width: 3; fill: none; fill-opacity: 1;"/><g stroke="none" fill="rgb(74,144,226)" fill-opacity="1" transform="matrix(-0.9998899589753325,-0.014834754474138246,0.014834754474138246,-0.9998899589753325,792.8141837347222,336.74343459389434)" style="stroke: none; fill: rgb(74, 144, 226); stroke-width: 3;"><path d=" M11.43,-5.49 L0,0 L11.43,5.49 Z"/></g></g><g class="arrow-line"><path class="connection real" stroke-dasharray="" d="  M771.78,325.06 L788.22,325.31" style="stroke: rgb(245, 166, 35); stroke-opacity: 1; stroke-width: 3; fill: none; fill-opacity: 1;"/><g stroke="none" fill="rgb(245,166,35)" fill-opacity="1" transform="matrix(-0.9998899589753325,-0.014834754474138246,0.014834754474138246,-0.9998899589753325,793.2210301078384,325.38162682294194)" style="stroke: none; fill: rgb(245, 166, 35); stroke-width: 3;"><path d=" M11.43,-5.49 L0,0 L11.43,5.49 Z"/></g></g><g class="composite-shape"><path class="real" d=" M619.32,269.54 C619.32,253.64 632.21,240.75 648.11,240.75 C664,240.75 676.89,253.64 676.89,269.54 C676.89,285.43 664,298.32 648.11,298.32 C632.21,298.32 619.32,285.43 619.32,269.54 Z" style="stroke-width: 2; stroke: rgb(189, 16, 224); stroke-opacity: 1; fill: rgb(144, 19, 254); fill-opacity: 1;"/></g><g class="composite-shape"><path class="real" d=" M639,257.62 C639,255.19 640.97,253.22 643.4,253.22 L656.6,253.22 C659.03,253.22 661,255.19 661,257.62 L661,278.82 C661,281.25 659.03,283.22 656.6,283.22 L643.4,283.22 C640.97,283.22 639,281.25 639,278.82 Z" style="stroke-width: 1; stroke: rgb(184, 233, 134); stroke-opacity: 1; fill: none; fill-opacity: 1;"/></g><g class="arrow-line"><path class="connection real" stroke-dasharray="" d="  M641.75,261.71 L654.22,261.94" style="stroke: rgb(208, 2, 27); stroke-opacity: 1; stroke-width: 3; fill: none; fill-opacity: 1;"/><g stroke="none" fill="rgb(208,2,27)" fill-opacity="1" transform="matrix(-0.999822352380809,-0.018848439715408213,0.018848439715408213,-0.999822352380809,659.2195513589194,262.03726953249367)" style="stroke: none; fill: rgb(208, 2, 27); stroke-width: 3;"><path d=" M10,-4.8 L0,0 L10,4.8 Z"/></g></g><g class="arrow-line"><path class="connection real" stroke-dasharray="" d="  M658.03,273.77 L645.19,273.43" style="stroke: rgb(74, 144, 226); stroke-opacity: 1; stroke-width: 3; fill: none; fill-opacity: 1;"/><g stroke="none" fill="rgb(74,144,226)" fill-opacity="1" transform="matrix(0.999643481727238,0.026700364047051388,-0.026700364047051388,0.999643481727238,640.1892647516058,273.29432623214484)" style="stroke: none; fill: rgb(74, 144, 226); stroke-width: 3;"><path d=" M10,-4.8 L0,0 L10,4.8 Z"/></g></g><g class="composite-shape"><path class="real" d=" M542.32,201.54 C542.32,185.64 555.21,172.75 571.11,172.75 C587,172.75 599.89,185.64 599.89,201.54 C599.89,217.43 587,230.32 571.11,230.32 C555.21,230.32 542.32,217.43 542.32,201.54 Z" style="stroke-width: 2; stroke: rgb(184, 233, 134); stroke-opacity: 1; fill: rgb(184, 233, 134); fill-opacity: 1;"/></g><g class="composite-shape"><path class="real" d=" M558,189.4 C558,186.42 560.42,184 563.4,184 L579.6,184 C582.59,184 585,186.42 585,189.4 L585,216.6 C585,219.58 582.59,222 579.6,222 L563.4,222 C560.42,222 558,219.58 558,216.6 Z" style="stroke-width: 1; stroke: rgb(255, 255, 255); stroke-opacity: 1; fill: none; fill-opacity: 1;"/></g><g class="arrow-line"><path class="connection real" stroke-dasharray="" d="  M561.38,192.2 L577.81,192.45" style="stroke: rgb(74, 144, 226); stroke-opacity: 1; stroke-width: 3; fill: none; fill-opacity: 1;"/><g stroke="none" fill="rgb(74,144,226)" fill-opacity="1" transform="matrix(-0.9998899589753325,-0.014834754474138246,0.014834754474138246,-0.9998899589753325,582.8141837347222,192.52121321938256)" style="stroke: none; fill: rgb(74, 144, 226); stroke-width: 3;"><path d=" M11.43,-5.49 L0,0 L11.43,5.49 Z"/></g></g><g class="arrow-line"><path class="connection real" stroke-dasharray="" d="  M581.35,203.86 L564.46,203.51" style="stroke: rgb(208, 2, 27); stroke-opacity: 1; stroke-width: 3; fill: none; fill-opacity: 1;"/><g stroke="none" fill="rgb(208,2,27)" fill-opacity="1" transform="matrix(0.9997770131055305,0.021116914210744735,-0.021116914210744735,0.9997770131055305,559.4595098344039,203.403034695712)" style="stroke: none; fill: rgb(208, 2, 27); stroke-width: 3;"><path d=" M11.43,-5.49 L0,0 L11.43,5.49 Z"/></g></g><g class="arrow-line"><path class="connection real" stroke-dasharray="" d="  M580.62,215.95 L563.73,215.6" style="stroke: rgb(245, 166, 35); stroke-opacity: 1; stroke-width: 3; fill: none; fill-opacity: 1;"/><g stroke="none" fill="rgb(245,166,35)" fill-opacity="1" transform="matrix(0.9997770131055305,0.021116914210744735,-0.021116914210744735,0.9997770131055305,558.729754917202,215.49394378662112)" style="stroke: none; fill: rgb(245, 166, 35); stroke-width: 3;"><path d=" M11.43,-5.49 L0,0 L11.43,5.49 Z"/></g></g><g class="composite-shape"><path class="real" d=" M482.83,192.29 C482.83,167.58 502.86,147.56 527.56,147.56 L786.16,147.56 C810.87,147.56 830.9,167.58 830.9,192.29 L830.9,326.48 C830.9,351.19 810.87,371.22 786.16,371.22 L527.56,371.22 C502.86,371.22 482.83,351.19 482.83,326.48 Z" style="stroke-width: 4; stroke: rgb(189, 16, 224); stroke-opacity: 1; fill: none; fill-opacity: 1; stroke-dasharray: 10.5, 6;"/></g><g class="arrow-line"><path class="connection real" stroke-dasharray="" d="  M610,328 L749.32,327.54" style="stroke: rgb(0, 0, 0); stroke-width: 4; fill: none; fill-opacity: 1;"/></g><g class="composite-shape"><path class="real" d=" M164.69,358.78 C164.69,343.44 177.92,331 194.26,331 C210.59,331 223.83,343.44 223.83,358.78 C223.83,374.13 210.59,386.57 194.26,386.57 C177.92,386.57 164.69,374.13 164.69,358.78 Z" style="stroke-width: 1; stroke: rgb(173, 33, 33); stroke-opacity: 1; fill: rgb(220, 220, 220); fill-opacity: 1; stroke-dasharray: 1.125, 3.35;"/></g><g class="composite-shape"><path class="real" d=" M224.69,103.22 C224.69,87.87 237.92,75.43 254.26,75.43 C270.59,75.43 283.83,87.87 283.83,103.22 C283.83,118.56 270.59,131 254.26,131 C237.92,131 224.69,118.56 224.69,103.22 Z" style="stroke-width: 1; stroke: rgb(173, 33, 33); stroke-opacity: 1; fill: rgb(220, 220, 220); fill-opacity: 1; stroke-dasharray: 1.125, 3.35;"/></g><g class="composite-shape"><path class="real" d=" M324.69,123.22 C324.69,107.87 337.92,95.43 354.26,95.43 C370.59,95.43 383.83,107.87 383.83,123.22 C383.83,138.56 370.59,151 354.26,151 C337.92,151 324.69,138.56 324.69,123.22 Z" style="stroke-width: 1; stroke: rgb(173, 33, 33); stroke-opacity: 1; fill: rgb(220, 220, 220); fill-opacity: 1; stroke-dasharray: 1.125, 3.35;"/></g><g class="composite-shape"><path class="real" d=" M52.6,243.22 C52.6,227.87 65.84,215.43 82.18,215.43 C98.51,215.43 111.75,227.87 111.75,243.22 C111.75,258.56 98.51,271 82.18,271 C65.84,271 52.6,258.56 52.6,243.22 Z" style="stroke-width: 1; stroke: rgb(173, 33, 33); stroke-opacity: 1; fill: rgb(220, 220, 220); fill-opacity: 1; stroke-dasharray: 1.125, 3.35;"/></g><g class="composite-shape"><path class="real" d=" M184.69,238.78 C184.69,223.44 197.92,211 214.26,211 C230.59,211 243.83,223.44 243.83,238.78 C243.83,254.13 230.59,266.57 214.26,266.57 C197.92,266.57 184.69,254.13 184.69,238.78 Z" style="stroke-width: 1; stroke: rgb(173, 33, 33); stroke-opacity: 1; fill: rgb(220, 220, 220); fill-opacity: 1; stroke-dasharray: 1.125, 3.35;"/></g><g class="composite-shape"><path class="real" d=" M324.69,361.9 C324.69,346.56 337.92,334.12 354.26,334.12 C370.59,334.12 383.83,346.56 383.83,361.9 C383.83,377.25 370.59,389.69 354.26,389.69 C337.92,389.69 324.69,377.25 324.69,361.9 Z" style="stroke-width: 1; stroke: rgb(173, 33, 33); stroke-opacity: 1; fill: rgb(220, 220, 220); fill-opacity: 1; stroke-dasharray: 1.125, 3.35;"/></g><g class="composite-shape"><path class="real" d=" M321.86,245.45 C321.86,230.1 335.1,217.66 351.43,217.66 C367.76,217.66 381,230.1 381,245.45 C381,260.79 367.76,273.23 351.43,273.23 C335.1,273.23 321.86,260.79 321.86,245.45 Z" style="stroke-width: 1; stroke: rgb(173, 33, 33); stroke-opacity: 1; fill: rgb(220, 220, 220); fill-opacity: 1; stroke-dasharray: 1.125, 3.35;"/></g><g class="composite-shape"><path class="real" d=" M44.69,365.45 C44.69,350.1 57.92,337.66 74.26,337.66 C90.59,337.66 103.83,350.1 103.83,365.45 C103.83,380.79 90.59,393.23 74.26,393.23 C57.92,393.23 44.69,380.79 44.69,365.45 Z" style="stroke-width: 1; stroke: rgb(173, 33, 33); stroke-opacity: 1; fill: rgb(220, 220, 220); fill-opacity: 1; stroke-dasharray: 1.125, 3.35;"/></g><g class="composite-shape"><path class="real" d=" M51.7,116.85 C51.7,101.51 64.94,89.07 81.27,89.07 C97.61,89.07 110.85,101.51 110.85,116.85 C110.85,132.2 97.61,144.64 81.27,144.64 C64.94,144.64 51.7,132.2 51.7,116.85 Z" style="stroke-width: 1; stroke: rgb(173, 33, 33); stroke-opacity: 1; fill: rgb(220, 220, 220); fill-opacity: 1; stroke-dasharray: 1.125, 3.35;"/></g><g class="composite-shape"><path class="real" d=" M73.82,243.22 C73.82,238.52 77.56,234.72 82.18,234.72 C86.79,234.72 90.53,238.52 90.53,243.22 C90.53,247.91 86.79,251.72 82.18,251.72 C77.56,251.72 73.82,247.91 73.82,243.22 Z" style="stroke-width: 1; stroke: rgb(155, 155, 155); stroke-opacity: 1; fill: none; fill-opacity: 1; stroke-dasharray: 1.125, 3.35;"/></g><g class="arrow-line"><path class="connection real" stroke-dasharray="" d="  M81.27,142.35 L82.13,212.72" style="stroke: rgb(245, 166, 35); stroke-opacity: 1; stroke-width: 3; fill: none; fill-opacity: 1;"/><g stroke="rgb(245,166,35)" stroke-opacity="1" transform="matrix(-0.012042480750309996,-0.9999274866995999,0.9999274866995999,-0.012042480750309996,82.17576658000084,216.71641155391285)" style="stroke: rgb(245, 166, 35); stroke-width: 3;"><path d=" M19.24,-5.79 Q8.73,-0.79 0,0 Q8.73,0.79 19.24,5.79"/></g></g><g class="arrow-line"><path class="connection real" stroke-dasharray="" d="  M326.2,361.3 L228,360.05" style="stroke: rgb(74, 144, 226); stroke-opacity: 1; stroke-width: 3; fill: none; fill-opacity: 1;"/><g stroke="rgb(74,144,226)" stroke-opacity="1" transform="matrix(0.9999188357864599,0.012740558835888064,-0.012740558835888064,0.9999188357864599,224,360)" style="stroke: rgb(74, 144, 226); stroke-width: 3;"><path d=" M19.24,-5.79 Q8.73,-0.79 0,0 Q8.73,0.79 19.24,5.79"/></g></g><g class="arrow-line"><path class="connection real" stroke-dasharray="" d="  M102.61,362.45 L160.91,360.89" style="stroke: rgb(208, 2, 27); stroke-opacity: 1; stroke-width: 3; fill: none; fill-opacity: 1;"/><g stroke="rgb(208,2,27)" stroke-opacity="1" transform="matrix(-0.999643481727238,0.026700364047052002,-0.026700364047052002,-0.999643481727238,164.90611200528252,360.78413473060414)" style="stroke: rgb(208, 2, 27); stroke-width: 3;"><path d=" M19.24,-5.79 Q8.73,-0.79 0,0 Q8.73,0.79 19.24,5.79"/></g></g><g class="arrow-line"><path class="connection real" stroke-dasharray="" d="  M362,151 L360.6,213.1" style="stroke: rgb(74, 144, 226); stroke-opacity: 1; stroke-width: 3; fill: none; fill-opacity: 1;"/><g stroke="rgb(74,144,226)" stroke-opacity="1" transform="matrix(0.022687333572781538,-0.9997426093226983,0.9997426093226983,0.022687333572781538,360.5048555093125,217.0948140387638)" style="stroke: rgb(74, 144, 226); stroke-width: 3;"><path d=" M19.24,-5.79 Q8.73,-0.79 0,0 Q8.73,0.79 19.24,5.79"/></g></g><g class="arrow-line"><path class="connection real" stroke-dasharray="" d="  M109.98,116.85 L220.29,103.69" style="stroke: rgb(208, 2, 27); stroke-opacity: 1; stroke-width: 3; fill: none; fill-opacity: 1;"/><g stroke="rgb(208,2,27)" stroke-opacity="1" transform="matrix(-0.9929655081065369,0.11840396830650103,-0.11840396830650103,-0.9929655081065369,224.25698485411255,103.21586526939583)" style="stroke: rgb(208, 2, 27); stroke-width: 3;"><path d=" M19.24,-5.79 Q8.73,-0.79 0,0 Q8.73,0.79 19.24,5.79"/></g></g><g class="arrow-line"><path class="connection real" stroke-dasharray="" d="  M354,270 L354.24,330.12" style="stroke: rgb(208, 2, 27); stroke-opacity: 1; stroke-width: 3; fill: none; fill-opacity: 1;"/><g stroke="rgb(208,2,27)" stroke-opacity="1" transform="matrix(-0.004014246498463652,-0.9999919428800662,0.9999919428800662,-0.004014246498463652,354.2569848541125,334.1208490478253)" style="stroke: rgb(208, 2, 27); stroke-width: 3;"><path d=" M19.24,-5.79 Q8.73,-0.79 0,0 Q8.73,0.79 19.24,5.79"/></g></g><g class="composite-shape"><path class="real" d=" M19,122 C19,82.24 51.24,50 91,50 L347,50 C386.76,50 419,82.24 419,122 L419,338 C419,377.76 386.76,410 347,410 L91,410 C51.24,410 19,377.76 19,338 Z" style="stroke-width: 4; stroke: rgb(126, 211, 33); stroke-opacity: 1; fill: none; fill-opacity: 1; stroke-dasharray: 10.5, 6;"/></g><g class="arrow-line"><path class="connection real" stroke-dasharray="" d="  M328,261 L219.23,340.64" style="stroke: rgb(245, 166, 35); stroke-opacity: 1; stroke-width: 3; fill: none; fill-opacity: 1;"/><g stroke="rgb(245,166,35)" stroke-opacity="1" transform="matrix(0.8068572197188073,-0.5907464997675707,0.5907464997675707,0.8068572197188073,216,343)" style="stroke: rgb(245, 166, 35); stroke-width: 3;"><path d=" M19.24,-5.79 Q8.73,-0.79 0,0 Q8.73,0.79 19.24,5.79"/></g></g><g class="arrow-line"><path class="connection real" stroke-dasharray="" d="  M77,340 L78.89,274" style="stroke: rgb(245, 166, 35); stroke-opacity: 1; stroke-width: 3; fill: none; fill-opacity: 1;"/><g stroke="rgb(245,166,35)" stroke-opacity="1" transform="matrix(-0.028619491372294508,0.9995903784618934,-0.9995903784618934,-0.028619491372294508,79,270)" style="stroke: rgb(245, 166, 35); stroke-width: 3;"><path d=" M19.24,-5.79 Q8.73,-0.79 0,0 Q8.73,0.79 19.24,5.79"/></g></g><g class="arrow-line"><path class="connection real" stroke-dasharray="" d="  M110.53,243.22 L179.91,239.03" style="stroke: rgb(208, 2, 27); stroke-opacity: 1; stroke-width: 3; fill: none; fill-opacity: 1;"/><g stroke="rgb(208,2,27)" stroke-opacity="1" transform="matrix(-0.9981771750997538,0.06035169516985725,-0.06035169516985725,-0.9981771750997538,183.90611200528247,238.78413473060414)" style="stroke: rgb(208, 2, 27); stroke-width: 3;"><path d=" M19.24,-5.79 Q8.73,-0.79 0,0 Q8.73,0.79 19.24,5.79"/></g></g><g class="arrow-line"><path class="connection real" stroke-dasharray="" d="  M238.61,225.78 L331.63,142.45" style="stroke: rgb(245, 166, 35); stroke-opacity: 1; stroke-width: 3; fill: none; fill-opacity: 1;"/><g stroke="rgb(245,166,35)" stroke-opacity="1" transform="matrix(-0.7447775998868768,0.6673127652808264,-0.6673127652808264,-0.7447775998868768,334.60785770294257,139.78413473060414)" style="stroke: rgb(245, 166, 35); stroke-width: 3;"><path d=" M19.24,-5.79 Q8.73,-0.79 0,0 Q8.73,0.79 19.24,5.79"/></g></g><g class="arrow-line"><path class="connection real" stroke-dasharray="" d="  M340,339.56 L266.33,130.77" style="stroke: rgb(245, 166, 35); stroke-opacity: 1; stroke-width: 3; fill: none; fill-opacity: 1;"/><g stroke="rgb(245,166,35)" stroke-opacity="1" transform="matrix(0.3328195445229871,0.9429905358928643,-0.9429905358928643,0.3328195445229871,265,127)" style="stroke: rgb(245, 166, 35); stroke-width: 3;"><path d=" M19.24,-5.79 Q8.73,-0.79 0,0 Q8.73,0.79 19.24,5.79"/></g></g><g class="arrow-line"><path class="connection real" stroke-dasharray="" d="  M228,213 L244.21,132.92" style="stroke: rgb(74, 144, 226); stroke-opacity: 1; stroke-width: 3; fill: none; fill-opacity: 1;"/><g stroke="rgb(74,144,226)" stroke-opacity="1" transform="matrix(-0.1983416505380229,0.980132944891586,-0.980132944891586,-0.1983416505380229,245,129)" style="stroke: rgb(74, 144, 226); stroke-width: 3;"><path d=" M19.24,-5.79 Q8.73,-0.79 0,0 Q8.73,0.79 19.24,5.79"/></g></g><g class="composite-shape"><path class="real" d=" M136.7,174.85 C136.7,159.51 149.94,147.07 166.27,147.07 C182.61,147.07 195.85,159.51 195.85,174.85 C195.85,190.2 182.61,202.64 166.27,202.64 C149.94,202.64 136.7,190.2 136.7,174.85 Z" style="stroke-width: 1; stroke: rgb(173, 33, 33); stroke-opacity: 1; fill: rgb(220, 220, 220); fill-opacity: 1; stroke-dasharray: 1.125, 3.35;"/></g><g class="arrow-line"><path class="connection real" stroke-dasharray="" d="  M328.91,127.22 L198.12,165.24" style="stroke: rgb(208, 2, 27); stroke-opacity: 1; stroke-width: 3; fill: none; fill-opacity: 1;"/><g stroke="rgb(208,2,27)" stroke-opacity="1" transform="matrix(0.9602449779172391,-0.2791587046551138,0.2791587046551138,0.9602449779172391,194.27475135157445,166.35361819950612)" style="stroke: rgb(208, 2, 27); stroke-width: 3;"><path d=" M19.24,-5.79 Q8.73,-0.79 0,0 Q8.73,0.79 19.24,5.79"/></g></g><g class="arrow-line"><path class="connection real" stroke-dasharray="" d="  M144,161 L105.07,137.89" style="stroke: rgb(74, 144, 226); stroke-opacity: 1; stroke-width: 3; fill: none; fill-opacity: 1;"/><g stroke="rgb(74,144,226)" stroke-opacity="1" transform="matrix(0.8599413650490254,0.5103928376041525,-0.5103928376041525,0.8599413650490254,101.62562420040449,135.8530719149892)" style="stroke: rgb(74, 144, 226); stroke-width: 3;"><path d=" M19.24,-5.79 Q8.73,-0.79 0,0 Q8.73,0.79 19.24,5.79"/></g></g><g class="composite-shape"><path class="real" d=" M132.7,294.85 C132.7,279.51 145.94,267.07 162.27,267.07 C178.61,267.07 191.85,279.51 191.85,294.85 C191.85,310.2 178.61,322.64 162.27,322.64 C145.94,322.64 132.7,310.2 132.7,294.85 Z" style="stroke-width: 1; stroke: rgb(173, 33, 33); stroke-opacity: 1; fill: rgb(220, 220, 220); fill-opacity: 1; stroke-dasharray: 1.125, 3.35;"/></g><g class="arrow-line"><path class="connection real" stroke-dasharray="" d="  M140,310 L101.39,342.52" style="stroke: rgb(74, 144, 226); stroke-opacity: 1; stroke-width: 3; fill: none; fill-opacity: 1;"/><g stroke="rgb(74,144,226)" stroke-opacity="1" transform="matrix(0.764808968487291,-0.644257123919795,0.644257123919795,0.764808968487291,98.33362221947087,345.09481403876373)" style="stroke: rgb(74, 144, 226); stroke-width: 3;"><path d=" M19.24,-5.79 Q8.73,-0.79 0,0 Q8.73,0.79 19.24,5.79"/></g></g><g class="arrow-line"><path class="connection real" stroke-dasharray="" d="  M104,259 L133.67,278.78" style="stroke: rgb(208, 2, 27); stroke-opacity: 1; stroke-width: 3; fill: none; fill-opacity: 1;"/><g stroke="rgb(208,2,27)" stroke-opacity="1" transform="matrix(-0.8320509480795583,-0.5546992156114052,0.5546992156114052,-0.8320509480795583,137,280.99999999999994)" style="stroke: rgb(208, 2, 27); stroke-width: 3;"><path d=" M19.24,-5.79 Q8.73,-0.79 0,0 Q8.73,0.79 19.24,5.79"/></g></g><g class="composite-shape"><path class="real" d=" M427,204.38 L447.4,204.38 L447.4,195.5 L461,213.25 L447.4,231 L447.4,222.13 L427,222.13 L435.5,213.25 Z" style="stroke-width: 3; stroke: rgb(208, 2, 27); stroke-opacity: 1; fill: none; fill-opacity: 1;"/></g><g class="arrow-line"><path class="connection real" stroke-dasharray="" d="  M573,232.22 L573.75,306.5" style="stroke: rgb(0, 0, 0); stroke-width: 4; fill: none; fill-opacity: 1;"/></g><g class="arrow-line"><path class="connection real" stroke-dasharray="" d="  M599.89,201.54 L772.89,298.56" style="stroke: rgb(0, 0, 0); stroke-width: 4; fill: none; fill-opacity: 1;"/></g><g class="composite-shape"><path class="real" d=" M644.32,80 C644.32,43.96 673.54,14.75 709.57,14.75 C745.61,14.75 774.82,43.96 774.82,80 C774.82,116.04 745.61,145.25 709.57,145.25 C673.54,145.25 644.32,116.04 644.32,80 Z" style="stroke-width: 2; stroke: rgb(184, 233, 134); stroke-opacity: 1; fill: rgb(255, 255, 255); fill-opacity: 1;"/></g><g class="composite-shape"><path class="real" d=" M651,68 C651,56.95 660.21,48 671.57,48 C682.93,48 692.14,56.95 692.14,68 C692.14,79.05 682.93,88 671.57,88 C660.21,88 651,79.05 651,68 Z" style="stroke-width: 1; stroke: rgb(173, 33, 33); stroke-opacity: 1; fill: rgb(184, 233, 134); fill-opacity: 1; stroke-dasharray: 1.125, 3.35;"/></g><g class="arrow-line"><path class="connection real" stroke-dasharray="" d="  M678.57,52 L675.18,61.33" style="stroke: rgb(74, 144, 226); stroke-opacity: 1; stroke-width: 1; fill: none; fill-opacity: 1;"/><g stroke="none" fill="rgb(74,144,226)" fill-opacity="1" transform="matrix(0.34103591216064655,-0.9400502681329099,0.9400502681329099,0.34103591216064655,674.160042697014,64.1506724749313)" style="stroke: none; fill: rgb(74, 144, 226); stroke-width: 1;"><path d=" M7.14,-3.43 L0,0 L7.14,3.43 Z"/></g></g><g class="arrow-line"><path class="connection real" stroke-dasharray="" d="  M669.07,74.37 L662.26,81.83" style="stroke: rgb(208, 2, 27); stroke-opacity: 1; stroke-width: 1; fill: none; fill-opacity: 1;"/><g stroke="none" fill="rgb(208,2,27)" fill-opacity="1" transform="matrix(0.6739156408572929,-0.7388083032884133,0.7388083032884133,0.6739156408572929,660.2424171451903,84.04735510013097)" style="stroke: none; fill: rgb(208, 2, 27); stroke-width: 1;"><path d=" M7.14,-3.43 L0,0 L7.14,3.43 Z"/></g></g><g class="arrow-line"><path class="connection real" stroke-dasharray="" d="  M677.89,73.77 L687.47,78.98" style="stroke: rgb(245, 166, 35); stroke-opacity: 1; stroke-width: 1; fill: none; fill-opacity: 1;"/><g stroke="none" fill="rgb(245,166,35)" fill-opacity="1" transform="matrix(-0.8783169514026579,-0.4780787935881921,0.4780787935881921,-0.8783169514026579,690.1073203142043,80.41935263596525)" style="stroke: none; fill: rgb(245, 166, 35); stroke-width: 1;"><path d=" M7.14,-3.43 L0,0 L7.14,3.43 Z"/></g></g><g class="composite-shape"><path class="real" d=" M711,49 C711,37.95 720.21,29 731.57,29 C742.93,29 752.14,37.95 752.14,49 C752.14,60.05 742.93,69 731.57,69 C720.21,69 711,60.05 711,49 Z" style="stroke-width: 1; stroke: rgb(173, 33, 33); stroke-opacity: 1; fill: rgb(184, 233, 134); fill-opacity: 1; stroke-dasharray: 1.125, 3.35;"/></g><g class="arrow-line"><path class="connection real" stroke-dasharray="" d="  M738.57,32 L735.18,41.33" style="stroke: rgb(74, 144, 226); stroke-opacity: 1; stroke-width: 1; fill: none; fill-opacity: 1;"/><g stroke="none" fill="rgb(74,144,226)" fill-opacity="1" transform="matrix(0.34103591216064655,-0.9400502681329099,0.9400502681329099,0.34103591216064655,734.160042697014,44.1506724749313)" style="stroke: none; fill: rgb(74, 144, 226); stroke-width: 1;"><path d=" M7.14,-3.43 L0,0 L7.14,3.43 Z"/></g></g><g class="arrow-line"><path class="connection real" stroke-dasharray="" d="  M729.07,54.37 L722.26,61.83" style="stroke: rgb(208, 2, 27); stroke-opacity: 1; stroke-width: 1; fill: none; fill-opacity: 1;"/><g stroke="none" fill="rgb(208,2,27)" fill-opacity="1" transform="matrix(0.6739156408572929,-0.7388083032884133,0.7388083032884133,0.6739156408572929,720.2424171451903,64.04735510013097)" style="stroke: none; fill: rgb(208, 2, 27); stroke-width: 1;"><path d=" M7.14,-3.43 L0,0 L7.14,3.43 Z"/></g></g><g class="arrow-line"><path class="connection real" stroke-dasharray="" d="  M737.89,53.77 L747.47,58.98" style="stroke: rgb(245, 166, 35); stroke-opacity: 1; stroke-width: 1; fill: none; fill-opacity: 1;"/><g stroke="none" fill="rgb(245,166,35)" fill-opacity="1" transform="matrix(-0.8783169514026579,-0.4780787935881921,0.4780787935881921,-0.8783169514026579,750.1073203142042,60.419352635965254)" style="stroke: none; fill: rgb(245, 166, 35); stroke-width: 1;"><path d=" M7.14,-3.43 L0,0 L7.14,3.43 Z"/></g></g><g class="composite-shape"><path class="real" d=" M691,107 C691,95.95 700.21,87 711.57,87 C722.93,87 732.14,95.95 732.14,107 C732.14,118.05 722.93,127 711.57,127 C700.21,127 691,118.05 691,107 Z" style="stroke-width: 1; stroke: rgb(173, 33, 33); stroke-opacity: 1; fill: rgb(184, 233, 134); fill-opacity: 1; stroke-dasharray: 1.125, 3.35;"/></g><g class="arrow-line"><path class="connection real" stroke-dasharray="" d="  M718.57,92 L715.18,101.33" style="stroke: rgb(74, 144, 226); stroke-opacity: 1; stroke-width: 1; fill: none; fill-opacity: 1;"/><g stroke="none" fill="rgb(74,144,226)" fill-opacity="1" transform="matrix(0.34103591216064655,-0.9400502681329099,0.9400502681329099,0.34103591216064655,714.160042697014,104.1506724749313)" style="stroke: none; fill: rgb(74, 144, 226); stroke-width: 1;"><path d=" M7.14,-3.43 L0,0 L7.14,3.43 Z"/></g></g><g class="arrow-line"><path class="connection real" stroke-dasharray="" d="  M709.07,114.37 L702.26,121.83" style="stroke: rgb(208, 2, 27); stroke-opacity: 1; stroke-width: 1; fill: none; fill-opacity: 1;"/><g stroke="none" fill="rgb(208,2,27)" fill-opacity="1" transform="matrix(0.6739156408572929,-0.7388083032884133,0.7388083032884133,0.6739156408572929,700.2424171451903,124.04735510013109)" style="stroke: none; fill: rgb(208, 2, 27); stroke-width: 1;"><path d=" M7.14,-3.43 L0,0 L7.14,3.43 Z"/></g></g><g class="arrow-line"><path class="connection real" stroke-dasharray="" d="  M717.89,113.77 L727.47,118.98" style="stroke: rgb(245, 166, 35); stroke-opacity: 1; stroke-width: 1; fill: none; fill-opacity: 1;"/><g stroke="none" fill="rgb(245,166,35)" fill-opacity="1" transform="matrix(-0.8783169514026579,-0.4780787935881921,0.4780787935881921,-0.8783169514026579,730.1073203142043,120.41935263596531)" style="stroke: none; fill: rgb(245, 166, 35); stroke-width: 1;"><path d=" M7.14,-3.43 L0,0 L7.14,3.43 Z"/></g></g><g class="composite-shape"><path class="real" d=" M550.32,336.54 C550.32,320.64 563.21,307.75 579.11,307.75 C595,307.75 607.89,320.64 607.89,336.54 C607.89,352.43 595,365.32 579.11,365.32 C563.21,365.32 550.32,352.43 550.32,336.54 Z" style="stroke-width: 2; stroke: rgb(126, 211, 33); stroke-opacity: 1; fill: rgb(80, 227, 194); fill-opacity: 1;"/></g><g class="composite-shape"><path class="real" d=" M566,325.62 C566,322.64 568.42,320.22 571.4,320.22 L587.6,320.22 C590.59,320.22 593,322.64 593,325.62 L593,352.82 C593,355.8 590.59,358.22 587.6,358.22 L571.4,358.22 C568.42,358.22 566,355.8 566,352.82 Z" style="stroke-width: 1; stroke: rgb(255, 255, 255); stroke-opacity: 1; fill: none; fill-opacity: 1;"/></g><g class="arrow-line"><path class="connection real" stroke-dasharray="" d="  M569.38,328.42 L585.81,328.67" style="stroke: rgb(208, 2, 27); stroke-opacity: 1; stroke-width: 3; fill: none; fill-opacity: 1;"/><g stroke="none" fill="rgb(208,2,27)" fill-opacity="1" transform="matrix(-0.9998899589753325,-0.014834754474138246,0.014834754474138246,-0.9998899589753325,590.8141837347221,328.7434345938943)" style="stroke: none; fill: rgb(208, 2, 27); stroke-width: 3;"><path d=" M11.43,-5.49 L0,0 L11.43,5.49 Z"/></g></g><g class="arrow-line"><path class="connection real" stroke-dasharray="" d="  M589.35,340.09 L572.46,339.73" style="stroke: rgb(245, 166, 35); stroke-opacity: 1; stroke-width: 3; fill: none; fill-opacity: 1;"/><g stroke="none" fill="rgb(245,166,35)" fill-opacity="1" transform="matrix(0.9997770131055305,0.021116914210744735,-0.021116914210744735,0.9997770131055305,567.4595098344039,339.6252560702237)" style="stroke: none; fill: rgb(245, 166, 35); stroke-width: 3;"><path d=" M11.43,-5.49 L0,0 L11.43,5.49 Z"/></g></g><g class="arrow-line"><path class="connection real" stroke-dasharray="" d="  M588.62,352.18 L571.73,351.82" style="stroke: rgb(74, 144, 226); stroke-opacity: 1; stroke-width: 3; fill: none; fill-opacity: 1;"/><g stroke="none" fill="rgb(74,144,226)" fill-opacity="1" transform="matrix(0.9997770131055305,0.021116914210744735,-0.021116914210744735,0.9997770131055305,566.729754917202,351.71616516113284)" style="stroke: none; fill: rgb(74, 144, 226); stroke-width: 3;"><path d=" M11.43,-5.49 L0,0 L11.43,5.49 Z"/></g></g><g class="composite-shape"><path class="real" d=" M741.32,197.54 C741.32,181.64 754.21,168.75 770.11,168.75 C786,168.75 798.89,181.64 798.89,197.54 C798.89,213.43 786,226.32 770.11,226.32 C754.21,226.32 741.32,213.43 741.32,197.54 Z" style="stroke-width: 2; stroke: rgb(128, 128, 128); stroke-opacity: 1; fill: rgb(155, 155, 155); fill-opacity: 1;"/></g><g class="composite-shape"><path class="real" d=" M755,183.4 C755,180.42 757.42,178 760.4,178 L776.6,178 C779.59,178 782,180.42 782,183.4 L782,210.6 C782,213.58 779.59,216 776.6,216 L760.4,216 C757.42,216 755,213.58 755,210.6 Z" style="stroke-width: 1; stroke: rgb(255, 255, 255); stroke-opacity: 1; fill: none; fill-opacity: 1;"/></g><g class="arrow-line"><path class="connection real" stroke-dasharray="" d="  M758.38,186.2 L774.81,186.45" style="stroke: rgb(245, 166, 35); stroke-opacity: 1; stroke-width: 3; fill: none; fill-opacity: 1;"/><g stroke="none" fill="rgb(245,166,35)" fill-opacity="1" transform="matrix(-0.9998899589753325,-0.014834754474138246,0.014834754474138246,-0.9998899589753325,779.8141837347222,186.52121321938253)" style="stroke: none; fill: rgb(245, 166, 35); stroke-width: 3;"><path d=" M11.43,-5.49 L0,0 L11.43,5.49 Z"/></g></g><g class="arrow-line"><path class="connection real" stroke-dasharray="" d="  M778.35,197.86 L761.46,197.51" style="stroke: rgb(208, 2, 27); stroke-opacity: 1; stroke-width: 3; fill: none; fill-opacity: 1;"/><g stroke="none" fill="rgb(208,2,27)" fill-opacity="1" transform="matrix(0.9997770131055305,0.021116914210744735,-0.021116914210744735,0.9997770131055305,756.4595098344039,197.403034695712)" style="stroke: none; fill: rgb(208, 2, 27); stroke-width: 3;"><path d=" M11.43,-5.49 L0,0 L11.43,5.49 Z"/></g></g><g class="arrow-line"><path class="connection real" stroke-dasharray="" d="  M777.62,209.95 L760.73,209.6" style="stroke: rgb(74, 144, 226); stroke-opacity: 1; stroke-width: 3; fill: none; fill-opacity: 1;"/><g stroke="none" fill="rgb(74,144,226)" fill-opacity="1" transform="matrix(0.9997770131055305,0.021116914210744735,-0.021116914210744735,0.9997770131055305,755.729754917202,209.49394378662112)" style="stroke: none; fill: rgb(74, 144, 226); stroke-width: 3;"><path d=" M11.43,-5.49 L0,0 L11.43,5.49 Z"/></g></g><g class="arrow-line"><path class="connection real" stroke-dasharray="" d="  M602.89,196.54 L741.32,196.54" style="stroke: rgb(0, 0, 0); stroke-width: 4; fill: none; fill-opacity: 1;"/></g><g class="arrow-line"><path class="connection real" stroke-dasharray="" d="  M623.89,283.56 L597.89,313.56" style="stroke: rgb(0, 0, 0); stroke-width: 4; fill: none; fill-opacity: 1;"/></g><g class="arrow-line"><path class="connection real" stroke-dasharray="" d="  M625.89,250.56 L589.89,221.56" style="stroke: rgb(0, 0, 0); stroke-width: 4; fill: none; fill-opacity: 1;"/></g><g class="arrow-line"><path class="connection real" stroke-dasharray="" d="  M561.47,153.02 C551.86,123.8 547.76,101.64 547.76,84.96 C547.76,62.4 555.22,49.71 566.65,42.95 C574.87,38.08 585.24,36.3 596.57,36.3 C605.33,36.3 614.66,37.35 624,38.8 C629.37,39.63 634.74,40.59 640,41.55 C641.43,41.81 642.85,42.07 644.25,42.33 C648.25,43.06 652.17,43.77 650.06,43.38 M564.32,152.09 C554.84,123.26 550.76,101.41 550.76,84.96 C550.76,63.94 557.45,51.87 568.17,45.53 C575.98,40.91 585.84,39.3 596.57,39.3 C605.18,39.3 614.36,40.34 623.54,41.76 C628.88,42.59 634.23,43.54 639.46,44.5 C640.89,44.76 642.31,45.02 643.71,45.28 C647.73,46.01 651.66,46.73 649.55,46.34" style="stroke: rgb(139, 87, 42); stroke-opacity: 1; stroke-width: 3; fill: none; fill-opacity: 1;"/><g stroke="rgb(139,87,42)" stroke-opacity="1" fill="rgb(139,87,42)" fill-opacity="1" transform="matrix(-0.3075226976725676,-0.9515407455365149,0.9515407455365149,-0.3075226976725676,562.892333984375,152.55554962158203)" style="stroke: rgb(139, 87, 42); fill: rgb(139, 87, 42); stroke-width: 3;"><circle cx="0" cy="0" r="5.36"/></g><g stroke="none" fill="rgb(139,87,42)" fill-opacity="1" transform="matrix(-0.9879868527780424,-0.1545379524186172,0.1545379524186172,-0.9879868527780424,659.892333984375,46.55554962158203)" style="stroke: none; fill: rgb(139, 87, 42); stroke-width: 3;"><path d=" M16.07,-7.72 L0,0 L16.07,7.72 L10.67,0 Z"/></g></g><g class="arrow-line"><path class="connection real" stroke-dasharray="" d="  M56,255 C36.98,313.96 29.45,310.29 49.1,346.52" style="stroke: rgb(74, 144, 226); stroke-opacity: 1; stroke-width: 3; fill: none; fill-opacity: 1;"/><g stroke="rgb(74,144,226)" stroke-opacity="1" transform="matrix(-0.48190661113165056,-0.87622258481941,0.87622258481941,-0.48190661113165056,51,350)" style="stroke: rgb(74, 144, 226); stroke-width: 3;"><path d=" M19.24,-5.79 Q8.73,-0.79 0,0 Q8.73,0.79 19.24,5.79"/></g></g></g><g/></g><g/><g/><g/></svg>
        <svg xmlns="http://www.w3.org/2000/svg" xmlns:xlink="http://www.w3.org/1999/xlink" width="860" height="461" style="width:860px;height:461px;font-family:Asana-Math, Asana;background:#FFF;"><g><g><g><text x="170.1875" y="424.25" style="white-space:pre;stroke:none;fill:rgb(0,0,0);fill-opacity:1;font-size:15px;font-family:Arial, Helvetica, sans-serif;font-weight:700;font-style:normal;dominant-baseline:text-before-edge;text-decoration:none;">Knowledge graph</text></g></g></g><g><g><g><text x="618.328125" y="412.25" style="white-space:pre;stroke:none;fill:rgb(0,0,0);fill-opacity:1;font-size:15px;font-family:Arial, Helvetica, sans-serif;font-weight:700;font-style:normal;dominant-baseline:text-before-edge;text-decoration:none;">Model  graph</text></g></g></g><g><g><g><g><g><g><g transform="matrix(1,0,0,1,249.015625,109.859375)"><path transform="matrix(0.017,0,0,-0.017,0,0)" d="M328 111L304 94C251 56 203 36 167 36C120 36 91 73 91 133C91 158 94 185 99 214C116 218 225 248 250 259C335 296 374 342 374 404C374 451 340 482 290 482C222 496 112 423 75 349C45 299 15 180 15 113C15 35 59 -11 131 -11C188 -11 244 17 336 92ZM113 274C130 343 150 386 179 412C197 428 228 440 252 440C281 440 300 420 300 388C300 344 265 297 213 272C185 258 149 247 104 237Z" stroke="rgb(0,0,0)" stroke-opacity="1" stroke-width="24" fill="rgb(0,0,0)" fill-opacity="1"></path></g></g><g><g><g><g><g transform="matrix(1,0,0,1,256.125,112.86875)"><path transform="matrix(0.0119,0,0,-0.0119,0,0)" d="M16 23L16 -3C203 -3 203 0 239 0C275 0 275 -3 468 -3L468 82C353 77 307 81 122 77L304 270C401 373 431 428 431 503C431 618 353 689 226 689C154 689 105 669 56 619L39 483L68 483L81 529C97 587 133 612 200 612C286 612 341 558 341 473C341 398 299 324 186 204Z" stroke="rgb(0,0,0)" stroke-opacity="1" stroke-width="24" fill="rgb(0,0,0)" fill-opacity="1"></path></g></g></g></g></g></g></g></g></g></g><g><g><g><g><g><g><g transform="matrix(1,0,0,1,75.9375,247.859375)"><path transform="matrix(0.017,0,0,-0.017,0,0)" d="M328 111L304 94C251 56 203 36 167 36C120 36 91 73 91 133C91 158 94 185 99 214C116 218 225 248 250 259C335 296 374 342 374 404C374 451 340 482 290 482C222 496 112 423 75 349C45 299 15 180 15 113C15 35 59 -11 131 -11C188 -11 244 17 336 92ZM113 274C130 343 150 386 179 412C197 428 228 440 252 440C281 440 300 420 300 388C300 344 265 297 213 272C185 258 149 247 104 237Z" stroke="rgb(0,0,0)" stroke-opacity="1" stroke-width="24" fill="rgb(0,0,0)" fill-opacity="1"></path></g></g><g><g><g><g><g transform="matrix(1,0,0,1,83.046875,250.86875)"><path transform="matrix(0.0119,0,0,-0.0119,0,0)" d="M418 -3L418 27L366 30C311 33 301 44 301 96L301 700L60 598L67 548L217 614L217 96C217 44 206 33 152 30L96 27L96 -3C250 0 250 0 261 0C292 0 402 -3 418 -3Z" stroke="rgb(0,0,0)" stroke-opacity="1" stroke-width="24" fill="rgb(0,0,0)" fill-opacity="1"></path></g></g></g></g></g></g></g></g></g></g><g><g><g><g><g><g><g transform="matrix(1,0,0,1,344.015625,127.859375)"><path transform="matrix(0.017,0,0,-0.017,0,0)" d="M328 111L304 94C251 56 203 36 167 36C120 36 91 73 91 133C91 158 94 185 99 214C116 218 225 248 250 259C335 296 374 342 374 404C374 451 340 482 290 482C222 496 112 423 75 349C45 299 15 180 15 113C15 35 59 -11 131 -11C188 -11 244 17 336 92ZM113 274C130 343 150 386 179 412C197 428 228 440 252 440C281 440 300 420 300 388C300 344 265 297 213 272C185 258 149 247 104 237Z" stroke="rgb(0,0,0)" stroke-opacity="1" stroke-width="24" fill="rgb(0,0,0)" fill-opacity="1"></path></g></g><g><g><g><g><g transform="matrix(1,0,0,1,351.125,130.86875)"><path transform="matrix(0.0119,0,0,-0.0119,0,0)" d="M459 253C459 366 378 446 264 446C216 446 180 443 127 396L127 605L432 604L432 689L75 690L75 322L95 316C142 363 169 377 218 377C314 377 374 309 374 201C374 90 310 25 201 25C147 25 97 43 83 69L37 151L13 137C36 80 48 48 62 4C90 -11 130 -20 173 -20C301 -20 459 89 459 253Z" stroke="rgb(0,0,0)" stroke-opacity="1" stroke-width="24" fill="rgb(0,0,0)" fill-opacity="1"></path></g></g></g></g></g></g></g></g></g></g><g><g><g><g><g><g><g transform="matrix(1,0,0,1,202.015625,247.421875)"><path transform="matrix(0.017,0,0,-0.017,0,0)" d="M328 111L304 94C251 56 203 36 167 36C120 36 91 73 91 133C91 158 94 185 99 214C116 218 225 248 250 259C335 296 374 342 374 404C374 451 340 482 290 482C222 496 112 423 75 349C45 299 15 180 15 113C15 35 59 -11 131 -11C188 -11 244 17 336 92ZM113 274C130 343 150 386 179 412C197 428 228 440 252 440C281 440 300 420 300 388C300 344 265 297 213 272C185 258 149 247 104 237Z" stroke="rgb(0,0,0)" stroke-opacity="1" stroke-width="24" fill="rgb(0,0,0)" fill-opacity="1"></path></g></g><g><g><g><g><g transform="matrix(1,0,0,1,209.125,250.43125)"><path transform="matrix(0.0119,0,0,-0.0119,0,0)" d="M131 331C152 512 241 611 421 665L379 689C283 657 242 637 191 593C88 506 32 384 32 247C32 82 112 -20 241 -20C371 -20 468 83 468 219C468 334 399 409 293 409C216 409 184 370 131 331ZM255 349C331 349 382 283 382 184C382 80 331 13 254 13C169 13 123 86 123 220C123 255 127 274 138 291C160 325 207 349 255 349Z" stroke="rgb(0,0,0)" stroke-opacity="1" stroke-width="24" fill="rgb(0,0,0)" fill-opacity="1"></path></g></g></g></g></g></g></g></g></g></g><g><g><g><g><g><g><g transform="matrix(1,0,0,1,189.015625,364.421875)"><path transform="matrix(0.017,0,0,-0.017,0,0)" d="M328 111L304 94C251 56 203 36 167 36C120 36 91 73 91 133C91 158 94 185 99 214C116 218 225 248 250 259C335 296 374 342 374 404C374 451 340 482 290 482C222 496 112 423 75 349C45 299 15 180 15 113C15 35 59 -11 131 -11C188 -11 244 17 336 92ZM113 274C130 343 150 386 179 412C197 428 228 440 252 440C281 440 300 420 300 388C300 344 265 297 213 272C185 258 149 247 104 237Z" stroke="rgb(0,0,0)" stroke-opacity="1" stroke-width="24" fill="rgb(0,0,0)" fill-opacity="1"></path></g></g><g><g><g><g><g transform="matrix(1,0,0,1,196.125,367.43125)"><path transform="matrix(0.0119,0,0,-0.0119,0,0)" d="M409 603L47 -1L157 -1L497 659L497 689L44 689L44 477L74 477L81 533C89 595 96 603 142 603Z" stroke="rgb(0,0,0)" stroke-opacity="1" stroke-width="24" fill="rgb(0,0,0)" fill-opacity="1"></path></g></g></g></g></g></g></g></g></g></g><g><g><g><g><g><g><g transform="matrix(1,0,0,1,346.015625,372.265625)"><path transform="matrix(0.017,0,0,-0.017,0,0)" d="M328 111L304 94C251 56 203 36 167 36C120 36 91 73 91 133C91 158 94 185 99 214C116 218 225 248 250 259C335 296 374 342 374 404C374 451 340 482 290 482C222 496 112 423 75 349C45 299 15 180 15 113C15 35 59 -11 131 -11C188 -11 244 17 336 92ZM113 274C130 343 150 386 179 412C197 428 228 440 252 440C281 440 300 420 300 388C300 344 265 297 213 272C185 258 149 247 104 237Z" stroke="rgb(0,0,0)" stroke-opacity="1" stroke-width="24" fill="rgb(0,0,0)" fill-opacity="1"></path></g></g><g><g><g><g><g transform="matrix(1,0,0,1,353.125,375.275)"><path transform="matrix(0.0119,0,0,-0.0119,0,0)" d="M462 224C462 345 355 366 308 374C388 436 418 482 418 541C418 630 344 689 233 689C165 689 120 670 72 622L43 498L74 498L92 554C103 588 166 622 218 622C283 622 336 569 336 506C336 431 277 368 206 368C198 368 187 369 174 370L159 371L147 318L154 312C192 329 211 334 238 334C321 334 369 281 369 190C369 88 308 21 215 21C169 21 128 36 98 64C74 86 61 109 42 163L15 153C36 92 44 56 50 6C103 -12 147 -20 184 -20C307 -20 462 87 462 224Z" stroke="rgb(0,0,0)" stroke-opacity="1" stroke-width="24" fill="rgb(0,0,0)" fill-opacity="1"></path></g></g></g></g></g></g></g></g></g></g><g><g><g><g><g><g><g transform="matrix(1,0,0,1,344.1875,251.09375)"><path transform="matrix(0.017,0,0,-0.017,0,0)" d="M328 111L304 94C251 56 203 36 167 36C120 36 91 73 91 133C91 158 94 185 99 214C116 218 225 248 250 259C335 296 374 342 374 404C374 451 340 482 290 482C222 496 112 423 75 349C45 299 15 180 15 113C15 35 59 -11 131 -11C188 -11 244 17 336 92ZM113 274C130 343 150 386 179 412C197 428 228 440 252 440C281 440 300 420 300 388C300 344 265 297 213 272C185 258 149 247 104 237Z" stroke="rgb(0,0,0)" stroke-opacity="1" stroke-width="24" fill="rgb(0,0,0)" fill-opacity="1"></path></g></g><g><g><g><g><g transform="matrix(1,0,0,1,351.296875,254.103125)"><path transform="matrix(0.0119,0,0,-0.0119,0,0)" d="M168 345C127 326 110 315 88 294C50 256 30 211 30 159C30 56 113 -20 226 -20C356 -20 464 82 464 206C464 286 427 329 313 381C404 443 436 485 436 545C436 631 365 689 259 689C140 689 53 613 53 508C53 440 80 402 168 345ZM284 295C347 267 385 218 385 164C385 80 322 14 241 14C156 14 101 74 101 167C101 240 130 286 204 331ZM223 423C160 454 128 494 128 544C128 610 176 655 247 655C320 655 368 607 368 534C368 477 343 438 278 396Z" stroke="rgb(0,0,0)" stroke-opacity="1" stroke-width="24" fill="rgb(0,0,0)" fill-opacity="1"></path></g></g></g></g></g></g></g></g></g></g><g><g><g><g><g><g><g transform="matrix(1,0,0,1,67.015625,371.09375)"><path transform="matrix(0.017,0,0,-0.017,0,0)" d="M328 111L304 94C251 56 203 36 167 36C120 36 91 73 91 133C91 158 94 185 99 214C116 218 225 248 250 259C335 296 374 342 374 404C374 451 340 482 290 482C222 496 112 423 75 349C45 299 15 180 15 113C15 35 59 -11 131 -11C188 -11 244 17 336 92ZM113 274C130 343 150 386 179 412C197 428 228 440 252 440C281 440 300 420 300 388C300 344 265 297 213 272C185 258 149 247 104 237Z" stroke="rgb(0,0,0)" stroke-opacity="1" stroke-width="24" fill="rgb(0,0,0)" fill-opacity="1"></path></g></g><g><g><g><g><g transform="matrix(1,0,0,1,74.125,374.103125)"><path transform="matrix(0.0119,0,0,-0.0119,0,0)" d="M280 181L280 106C280 46 269 32 220 30L158 27L158 -3C291 0 291 0 315 0C339 0 339 0 472 -3L472 27L424 30C375 33 364 46 364 106L364 181C423 181 444 180 472 177L472 248L364 245L365 697L285 667L2 204L2 181ZM280 245L65 245L280 597Z" stroke="rgb(0,0,0)" stroke-opacity="1" stroke-width="24" fill="rgb(0,0,0)" fill-opacity="1"></path></g></g></g></g></g></g></g></g></g></g><g transform="matrix(0.997813020072307,-0.06609975018244633,0.06609975018244633,0.997813020072307,-6.229254790664044,10.131917770506377)"><g><g><g><g><g><g transform="matrix(1,0,0,1,142.9609375,105.0078125)"><path transform="matrix(0.017,0,0,-0.017,0,0)" d="M368 365C371 403 376 435 384 476C373 481 369 482 364 482C333 482 302 458 266 407C227 351 188 291 172 256L204 408C208 425 210 438 210 450C210 470 202 482 187 482C166 482 128 461 54 408L26 388L33 368L65 389C93 407 104 412 113 412C123 412 130 403 130 390C130 332 87 126 47 -2L57 -9C72 -4 88 -1 111 4L124 6L150 126C168 209 191 262 235 319C269 363 296 384 318 384C333 384 343 379 354 365Z" stroke="rgb(208,2,27)" stroke-opacity="1" stroke-width="24" fill="rgb(208,2,27)" fill-opacity="1"></path></g></g><g><g><g><g><g transform="matrix(1,0,0,1,150.0703125,108.0171875)"><path transform="matrix(0.0119,0,0,-0.0119,0,0)" d="M418 -3L418 27L366 30C311 33 301 44 301 96L301 700L60 598L67 548L217 614L217 96C217 44 206 33 152 30L96 27L96 -3C250 0 250 0 261 0C292 0 402 -3 418 -3Z" stroke="rgb(208,2,27)" stroke-opacity="1" stroke-width="24" fill="rgb(208,2,27)" fill-opacity="1"></path></g></g></g></g></g></g></g></g></g></g><g transform="matrix(0.8939978849607813,0.448071179262458,-0.448071179262458,0.8939978849607813,127.93223176670304,-27.894832113032805)"><g><g><g><g><g><g transform="matrix(1,0,0,1,115.8828125,262.2421875)"><path transform="matrix(0.017,0,0,-0.017,0,0)" d="M368 365C371 403 376 435 384 476C373 481 369 482 364 482C333 482 302 458 266 407C227 351 188 291 172 256L204 408C208 425 210 438 210 450C210 470 202 482 187 482C166 482 128 461 54 408L26 388L33 368L65 389C93 407 104 412 113 412C123 412 130 403 130 390C130 332 87 126 47 -2L57 -9C72 -4 88 -1 111 4L124 6L150 126C168 209 191 262 235 319C269 363 296 384 318 384C333 384 343 379 354 365Z" stroke="rgb(208,2,27)" stroke-opacity="1" stroke-width="24" fill="rgb(208,2,27)" fill-opacity="1"></path></g></g><g><g><g><g><g transform="matrix(1,0,0,1,122.9921875,265.2515625)"><path transform="matrix(0.0119,0,0,-0.0119,0,0)" d="M418 -3L418 27L366 30C311 33 301 44 301 96L301 700L60 598L67 548L217 614L217 96C217 44 206 33 152 30L96 27L96 -3C250 0 250 0 261 0C292 0 402 -3 418 -3Z" stroke="rgb(208,2,27)" stroke-opacity="1" stroke-width="24" fill="rgb(208,2,27)" fill-opacity="1"></path></g></g></g></g></g></g></g></g></g></g><g><g><g><g><g><g><g transform="matrix(1,0,0,1,123.96875,354.125)"><path transform="matrix(0.017,0,0,-0.017,0,0)" d="M368 365C371 403 376 435 384 476C373 481 369 482 364 482C333 482 302 458 266 407C227 351 188 291 172 256L204 408C208 425 210 438 210 450C210 470 202 482 187 482C166 482 128 461 54 408L26 388L33 368L65 389C93 407 104 412 113 412C123 412 130 403 130 390C130 332 87 126 47 -2L57 -9C72 -4 88 -1 111 4L124 6L150 126C168 209 191 262 235 319C269 363 296 384 318 384C333 384 343 379 354 365Z" stroke="rgb(208,2,27)" stroke-opacity="1" stroke-width="24" fill="rgb(208,2,27)" fill-opacity="1"></path></g></g><g><g><g><g><g transform="matrix(1,0,0,1,131.078125,357.134375)"><path transform="matrix(0.0119,0,0,-0.0119,0,0)" d="M418 -3L418 27L366 30C311 33 301 44 301 96L301 700L60 598L67 548L217 614L217 96C217 44 206 33 152 30L96 27L96 -3C250 0 250 0 261 0C292 0 402 -3 418 -3Z" stroke="rgb(208,2,27)" stroke-opacity="1" stroke-width="24" fill="rgb(208,2,27)" fill-opacity="1"></path></g></g></g></g></g></g></g></g></g></g><g transform="matrix(0.9998123463078188,0.01937194286730691,-0.01937194286730691,0.9998123463078188,4.483664704668769,-2.7657625702910025)"><g><g><g><g><g><g transform="matrix(1,0,0,1,137.9609375,235.8515625)"><path transform="matrix(0.017,0,0,-0.017,0,0)" d="M368 365C371 403 376 435 384 476C373 481 369 482 364 482C333 482 302 458 266 407C227 351 188 291 172 256L204 408C208 425 210 438 210 450C210 470 202 482 187 482C166 482 128 461 54 408L26 388L33 368L65 389C93 407 104 412 113 412C123 412 130 403 130 390C130 332 87 126 47 -2L57 -9C72 -4 88 -1 111 4L124 6L150 126C168 209 191 262 235 319C269 363 296 384 318 384C333 384 343 379 354 365Z" stroke="rgb(208,2,27)" stroke-opacity="1" stroke-width="24" fill="rgb(208,2,27)" fill-opacity="1"></path></g></g><g><g><g><g><g transform="matrix(1,0,0,1,145.0703125,238.8609375)"><path transform="matrix(0.0119,0,0,-0.0119,0,0)" d="M418 -3L418 27L366 30C311 33 301 44 301 96L301 700L60 598L67 548L217 614L217 96C217 44 206 33 152 30L96 27L96 -3C250 0 250 0 261 0C292 0 402 -3 418 -3Z" stroke="rgb(208,2,27)" stroke-opacity="1" stroke-width="24" fill="rgb(208,2,27)" fill-opacity="1"></path></g></g></g></g></g></g></g></g></g></g><g transform="matrix(0.9699994388528501,-0.24310715461531765,0.24310715461531765,0.9699994388528501,-19.761881169216906,76.42367201841866)"><g><g><g><g><g><g transform="matrix(1,0,0,1,292.7265625,124.0859375)"><path transform="matrix(0.017,0,0,-0.017,0,0)" d="M368 365C371 403 376 435 384 476C373 481 369 482 364 482C333 482 302 458 266 407C227 351 188 291 172 256L204 408C208 425 210 438 210 450C210 470 202 482 187 482C166 482 128 461 54 408L26 388L33 368L65 389C93 407 104 412 113 412C123 412 130 403 130 390C130 332 87 126 47 -2L57 -9C72 -4 88 -1 111 4L124 6L150 126C168 209 191 262 235 319C269 363 296 384 318 384C333 384 343 379 354 365Z" stroke="rgb(208,2,27)" stroke-opacity="1" stroke-width="24" fill="rgb(208,2,27)" fill-opacity="1"></path></g></g><g><g><g><g><g transform="matrix(1,0,0,1,299.8359375,127.0953125)"><path transform="matrix(0.0119,0,0,-0.0119,0,0)" d="M418 -3L418 27L366 30C311 33 301 44 301 96L301 700L60 598L67 548L217 614L217 96C217 44 206 33 152 30L96 27L96 -3C250 0 250 0 261 0C292 0 402 -3 418 -3Z" stroke="rgb(208,2,27)" stroke-opacity="1" stroke-width="24" fill="rgb(208,2,27)" fill-opacity="1"></path></g></g></g></g></g></g></g></g></g></g><g transform="matrix(0.7899410193191405,0.6131828324382844,-0.6131828324382844,0.7899410193191405,114.04324179701277,-54.12219358939561)"><g><g><g><g><g><g transform="matrix(1,0,0,1,128.9765625,145.1953125)"><path transform="matrix(0.017,0,0,-0.017,0,0)" d="M368 365C371 403 376 435 384 476C373 481 369 482 364 482C333 482 302 458 266 407C227 351 188 291 172 256L204 408C208 425 210 438 210 450C210 470 202 482 187 482C166 482 128 461 54 408L26 388L33 368L65 389C93 407 104 412 113 412C123 412 130 403 130 390C130 332 87 126 47 -2L57 -9C72 -4 88 -1 111 4L124 6L150 126C168 209 191 262 235 319C269 363 296 384 318 384C333 384 343 379 354 365Z" stroke="rgb(74,144,226)" stroke-opacity="1" stroke-width="24" fill="rgb(74,144,226)" fill-opacity="1"></path></g></g><g><g><g><g><g transform="matrix(1,0,0,1,136.0859375,148.2046875)"><path transform="matrix(0.0119,0,0,-0.0119,0,0)" d="M16 23L16 -3C203 -3 203 0 239 0C275 0 275 -3 468 -3L468 82C353 77 307 81 122 77L304 270C401 373 431 428 431 503C431 618 353 689 226 689C154 689 105 669 56 619L39 483L68 483L81 529C97 587 133 612 200 612C286 612 341 558 341 473C341 398 299 324 186 204Z" stroke="rgb(74,144,226)" stroke-opacity="1" stroke-width="24" fill="rgb(74,144,226)" fill-opacity="1"></path></g></g></g></g></g></g></g></g></g></g><g transform="matrix(0.21217767215644612,-0.9772311064626789,0.9772311064626789,0.21217767215644612,-0.4149062331649418,360.9228417287323)"><g><g><g><g><g><g transform="matrix(1,0,0,1,216.6015625,186.5234375)"><path transform="matrix(0.017,0,0,-0.017,0,0)" d="M368 365C371 403 376 435 384 476C373 481 369 482 364 482C333 482 302 458 266 407C227 351 188 291 172 256L204 408C208 425 210 438 210 450C210 470 202 482 187 482C166 482 128 461 54 408L26 388L33 368L65 389C93 407 104 412 113 412C123 412 130 403 130 390C130 332 87 126 47 -2L57 -9C72 -4 88 -1 111 4L124 6L150 126C168 209 191 262 235 319C269 363 296 384 318 384C333 384 343 379 354 365Z" stroke="rgb(74,144,226)" stroke-opacity="1" stroke-width="24" fill="rgb(74,144,226)" fill-opacity="1"></path></g></g><g><g><g><g><g transform="matrix(1,0,0,1,223.7109375,189.5328125)"><path transform="matrix(0.0119,0,0,-0.0119,0,0)" d="M16 23L16 -3C203 -3 203 0 239 0C275 0 275 -3 468 -3L468 82C353 77 307 81 122 77L304 270C401 373 431 428 431 503C431 618 353 689 226 689C154 689 105 669 56 619L39 483L68 483L81 529C97 587 133 612 200 612C286 612 341 558 341 473C341 398 299 324 186 204Z" stroke="rgb(74,144,226)" stroke-opacity="1" stroke-width="24" fill="rgb(74,144,226)" fill-opacity="1"></path></g></g></g></g></g></g></g></g></g></g><g transform="matrix(-0.06331307647126667,-0.9979937145832851,0.9979937145832851,-0.06331307647126667,191.9364479816303,530.395784833941)"><g><g><g><g><g><g transform="matrix(1,0,0,1,337.8359375,180.9296875)"><path transform="matrix(0.017,0,0,-0.017,0,0)" d="M368 365C371 403 376 435 384 476C373 481 369 482 364 482C333 482 302 458 266 407C227 351 188 291 172 256L204 408C208 425 210 438 210 450C210 470 202 482 187 482C166 482 128 461 54 408L26 388L33 368L65 389C93 407 104 412 113 412C123 412 130 403 130 390C130 332 87 126 47 -2L57 -9C72 -4 88 -1 111 4L124 6L150 126C168 209 191 262 235 319C269 363 296 384 318 384C333 384 343 379 354 365Z" stroke="rgb(74,144,226)" stroke-opacity="1" stroke-width="24" fill="rgb(74,144,226)" fill-opacity="1"></path></g></g><g><g><g><g><g transform="matrix(1,0,0,1,344.9453125,183.9390625)"><path transform="matrix(0.0119,0,0,-0.0119,0,0)" d="M16 23L16 -3C203 -3 203 0 239 0C275 0 275 -3 468 -3L468 82C353 77 307 81 122 77L304 270C401 373 431 428 431 503C431 618 353 689 226 689C154 689 105 669 56 619L39 483L68 483L81 529C97 587 133 612 200 612C286 612 341 558 341 473C341 398 299 324 186 204Z" stroke="rgb(74,144,226)" stroke-opacity="1" stroke-width="24" fill="rgb(74,144,226)" fill-opacity="1"></path></g></g></g></g></g></g></g></g></g></g><g transform="matrix(0.75915771424331,-0.6509067251956095,0.6509067251956095,0.75915771424331,-175.24730325608994,150.77825770872175)"><g><g><g><g><g><g transform="matrix(1,0,0,1,109.0859375,318.0078125)"><path transform="matrix(0.017,0,0,-0.017,0,0)" d="M368 365C371 403 376 435 384 476C373 481 369 482 364 482C333 482 302 458 266 407C227 351 188 291 172 256L204 408C208 425 210 438 210 450C210 470 202 482 187 482C166 482 128 461 54 408L26 388L33 368L65 389C93 407 104 412 113 412C123 412 130 403 130 390C130 332 87 126 47 -2L57 -9C72 -4 88 -1 111 4L124 6L150 126C168 209 191 262 235 319C269 363 296 384 318 384C333 384 343 379 354 365Z" stroke="rgb(74,144,226)" stroke-opacity="1" stroke-width="24" fill="rgb(74,144,226)" fill-opacity="1"></path></g></g><g><g><g><g><g transform="matrix(1,0,0,1,116.1953125,321.0171875)"><path transform="matrix(0.0119,0,0,-0.0119,0,0)" d="M16 23L16 -3C203 -3 203 0 239 0C275 0 275 -3 468 -3L468 82C353 77 307 81 122 77L304 270C401 373 431 428 431 503C431 618 353 689 226 689C154 689 105 669 56 619L39 483L68 483L81 529C97 587 133 612 200 612C286 612 341 558 341 473C341 398 299 324 186 204Z" stroke="rgb(74,144,226)" stroke-opacity="1" stroke-width="24" fill="rgb(74,144,226)" fill-opacity="1"></path></g></g></g></g></g></g></g></g></g></g><g transform="matrix(0.9976842788356053,-0.06801529066524772,0.06801529066524772,0.9976842788356053,-22.93279246197841,20.03228282094898)"><g><g><g><g><g><g transform="matrix(1,0,0,1,275.6796875,352.6015625)"><path transform="matrix(0.017,0,0,-0.017,0,0)" d="M368 365C371 403 376 435 384 476C373 481 369 482 364 482C333 482 302 458 266 407C227 351 188 291 172 256L204 408C208 425 210 438 210 450C210 470 202 482 187 482C166 482 128 461 54 408L26 388L33 368L65 389C93 407 104 412 113 412C123 412 130 403 130 390C130 332 87 126 47 -2L57 -9C72 -4 88 -1 111 4L124 6L150 126C168 209 191 262 235 319C269 363 296 384 318 384C333 384 343 379 354 365Z" stroke="rgb(74,144,226)" stroke-opacity="1" stroke-width="24" fill="rgb(74,144,226)" fill-opacity="1"></path></g></g><g><g><g><g><g transform="matrix(1,0,0,1,282.7890625,355.6109375)"><path transform="matrix(0.0119,0,0,-0.0119,0,0)" d="M16 23L16 -3C203 -3 203 0 239 0C275 0 275 -3 468 -3L468 82C353 77 307 81 122 77L304 270C401 373 431 428 431 503C431 618 353 689 226 689C154 689 105 669 56 619L39 483L68 483L81 529C97 587 133 612 200 612C286 612 341 558 341 473C341 398 299 324 186 204Z" stroke="rgb(74,144,226)" stroke-opacity="1" stroke-width="24" fill="rgb(74,144,226)" fill-opacity="1"></path></g></g></g></g></g></g></g></g></g></g><g transform="matrix(0.057041288539892106,-0.9983718202161501,0.9983718202161501,0.057041288539892106,-107.63675485018757,235.1317052615359)"><g><g><g><g><g><g transform="matrix(1,0,0,1,63.6171875,180.3515625)"><path transform="matrix(0.017,0,0,-0.017,0,0)" d="M368 365C371 403 376 435 384 476C373 481 369 482 364 482C333 482 302 458 266 407C227 351 188 291 172 256L204 408C208 425 210 438 210 450C210 470 202 482 187 482C166 482 128 461 54 408L26 388L33 368L65 389C93 407 104 412 113 412C123 412 130 403 130 390C130 332 87 126 47 -2L57 -9C72 -4 88 -1 111 4L124 6L150 126C168 209 191 262 235 319C269 363 296 384 318 384C333 384 343 379 354 365Z" stroke="rgb(245,166,35)" stroke-opacity="1" stroke-width="24" fill="rgb(245,166,35)" fill-opacity="1"></path></g></g><g><g><g><g><g transform="matrix(1,0,0,1,70.7265625,183.3609375)"><path transform="matrix(0.0119,0,0,-0.0119,0,0)" d="M462 224C462 345 355 366 308 374C388 436 418 482 418 541C418 630 344 689 233 689C165 689 120 670 72 622L43 498L74 498L92 554C103 588 166 622 218 622C283 622 336 569 336 506C336 431 277 368 206 368C198 368 187 369 174 370L159 371L147 318L154 312C192 329 211 334 238 334C321 334 369 281 369 190C369 88 308 21 215 21C169 21 128 36 98 64C74 86 61 109 42 163L15 153C36 92 44 56 50 6C103 -12 147 -20 184 -20C307 -20 462 87 462 224Z" stroke="rgb(245,166,35)" stroke-opacity="1" stroke-width="24" fill="rgb(245,166,35)" fill-opacity="1"></path></g></g></g></g></g></g></g></g></g></g><g transform="matrix(0.8091195699318647,-0.5876440432381446,0.5876440432381446,0.8091195699318647,-119.05070022980794,213.7095441667755)"><g><g><g><g><g><g transform="matrix(1,0,0,1,262.3984375,295.9140625)"><path transform="matrix(0.017,0,0,-0.017,0,0)" d="M368 365C371 403 376 435 384 476C373 481 369 482 364 482C333 482 302 458 266 407C227 351 188 291 172 256L204 408C208 425 210 438 210 450C210 470 202 482 187 482C166 482 128 461 54 408L26 388L33 368L65 389C93 407 104 412 113 412C123 412 130 403 130 390C130 332 87 126 47 -2L57 -9C72 -4 88 -1 111 4L124 6L150 126C168 209 191 262 235 319C269 363 296 384 318 384C333 384 343 379 354 365Z" stroke="rgb(245,166,35)" stroke-opacity="1" stroke-width="24" fill="rgb(245,166,35)" fill-opacity="1"></path></g></g><g><g><g><g><g transform="matrix(1,0,0,1,269.5078125,298.9234375)"><path transform="matrix(0.0119,0,0,-0.0119,0,0)" d="M462 224C462 345 355 366 308 374C388 436 418 482 418 541C418 630 344 689 233 689C165 689 120 670 72 622L43 498L74 498L92 554C103 588 166 622 218 622C283 622 336 569 336 506C336 431 277 368 206 368C198 368 187 369 174 370L159 371L147 318L154 312C192 329 211 334 238 334C321 334 369 281 369 190C369 88 308 21 215 21C169 21 128 36 98 64C74 86 61 109 42 163L15 153C36 92 44 56 50 6C103 -12 147 -20 184 -20C307 -20 462 87 462 224Z" stroke="rgb(245,166,35)" stroke-opacity="1" stroke-width="24" fill="rgb(245,166,35)" fill-opacity="1"></path></g></g></g></g></g></g></g></g></g></g><g transform="matrix(0.4601997847838517,0.8878153851364013,-0.8920724673336258,0.4519870406769389,360.937399344971,-154.82479461444564)"><g><g><g><g><g><g transform="matrix(1,0,0,1,301.7578125,223.5546875)"><path transform="matrix(0.017,0,0,-0.017,0,0)" d="M368 365C371 403 376 435 384 476C373 481 369 482 364 482C333 482 302 458 266 407C227 351 188 291 172 256L204 408C208 425 210 438 210 450C210 470 202 482 187 482C166 482 128 461 54 408L26 388L33 368L65 389C93 407 104 412 113 412C123 412 130 403 130 390C130 332 87 126 47 -2L57 -9C72 -4 88 -1 111 4L124 6L150 126C168 209 191 262 235 319C269 363 296 384 318 384C333 384 343 379 354 365Z" stroke="rgb(245,166,35)" stroke-opacity="1" stroke-width="24" fill="rgb(245,166,35)" fill-opacity="1"></path></g></g><g><g><g><g><g transform="matrix(1,0,0,1,308.8671875,226.5640625)"><path transform="matrix(0.0119,0,0,-0.0119,0,0)" d="M462 224C462 345 355 366 308 374C388 436 418 482 418 541C418 630 344 689 233 689C165 689 120 670 72 622L43 498L74 498L92 554C103 588 166 622 218 622C283 622 336 569 336 506C336 431 277 368 206 368C198 368 187 369 174 370L159 371L147 318L154 312C192 329 211 334 238 334C321 334 369 281 369 190C369 88 308 21 215 21C169 21 128 36 98 64C74 86 61 109 42 163L15 153C36 92 44 56 50 6C103 -12 147 -20 184 -20C307 -20 462 87 462 224Z" stroke="rgb(245,166,35)" stroke-opacity="1" stroke-width="24" fill="rgb(245,166,35)" fill-opacity="1"></path></g></g></g></g></g></g></g></g></g></g><g transform="matrix(0.8375280400421413,-0.5463943467342697,0.5386467861598676,0.8425824658003781,-37.472474145424826,186.07970922454746)"><g><g><g><g><g><g transform="matrix(1,0,0,1,287.8515625,164.3203125)"><path transform="matrix(0.017,0,0,-0.017,0,0)" d="M368 365C371 403 376 435 384 476C373 481 369 482 364 482C333 482 302 458 266 407C227 351 188 291 172 256L204 408C208 425 210 438 210 450C210 470 202 482 187 482C166 482 128 461 54 408L26 388L33 368L65 389C93 407 104 412 113 412C123 412 130 403 130 390C130 332 87 126 47 -2L57 -9C72 -4 88 -1 111 4L124 6L150 126C168 209 191 262 235 319C269 363 296 384 318 384C333 384 343 379 354 365Z" stroke="rgb(245,166,35)" stroke-opacity="1" stroke-width="24" fill="rgb(245,166,35)" fill-opacity="1"></path></g></g><g><g><g><g><g transform="matrix(1,0,0,1,294.9609375,167.3296875)"><path transform="matrix(0.0119,0,0,-0.0119,0,0)" d="M462 224C462 345 355 366 308 374C388 436 418 482 418 541C418 630 344 689 233 689C165 689 120 670 72 622L43 498L74 498L92 554C103 588 166 622 218 622C283 622 336 569 336 506C336 431 277 368 206 368C198 368 187 369 174 370L159 371L147 318L154 312C192 329 211 334 238 334C321 334 369 281 369 190C369 88 308 21 215 21C169 21 128 36 98 64C74 86 61 109 42 163L15 153C36 92 44 56 50 6C103 -12 147 -20 184 -20C307 -20 462 87 462 224Z" stroke="rgb(245,166,35)" stroke-opacity="1" stroke-width="24" fill="rgb(245,166,35)" fill-opacity="1"></path></g></g></g></g></g></g></g></g></g></g><g transform="matrix(0.02774717342174715,0.9996149730606797,-0.9996149730606797,0.02774717342174715,652.3230611393744,-80.90016265538736)"><g><g><g><g><g><g transform="matrix(1,0,0,1,360.7109375,300.6953125)"><path transform="matrix(0.017,0,0,-0.017,0,0)" d="M368 365C371 403 376 435 384 476C373 481 369 482 364 482C333 482 302 458 266 407C227 351 188 291 172 256L204 408C208 425 210 438 210 450C210 470 202 482 187 482C166 482 128 461 54 408L26 388L33 368L65 389C93 407 104 412 113 412C123 412 130 403 130 390C130 332 87 126 47 -2L57 -9C72 -4 88 -1 111 4L124 6L150 126C168 209 191 262 235 319C269 363 296 384 318 384C333 384 343 379 354 365Z" stroke="rgb(208,2,27)" stroke-opacity="1" stroke-width="24" fill="rgb(208,2,27)" fill-opacity="1"></path></g></g><g><g><g><g><g transform="matrix(1,0,0,1,367.8203125,303.7046875)"><path transform="matrix(0.0119,0,0,-0.0119,0,0)" d="M418 -3L418 27L366 30C311 33 301 44 301 96L301 700L60 598L67 548L217 614L217 96C217 44 206 33 152 30L96 27L96 -3C250 0 250 0 261 0C292 0 402 -3 418 -3Z" stroke="rgb(208,2,27)" stroke-opacity="1" stroke-width="24" fill="rgb(208,2,27)" fill-opacity="1"></path></g></g></g></g></g></g></g></g></g></g><g><g><g><g><g><g><g transform="matrix(1,0,0,1,726.90625,52.665625)"><path transform="matrix(0.0119,0,0,-0.0119,0,0)" d="M328 111L304 94C251 56 203 36 167 36C120 36 91 73 91 133C91 158 94 185 99 214C116 218 225 248 250 259C335 296 374 342 374 404C374 451 340 482 290 482C222 496 112 423 75 349C45 299 15 180 15 113C15 35 59 -11 131 -11C188 -11 244 17 336 92ZM113 274C130 343 150 386 179 412C197 428 228 440 252 440C281 440 300 420 300 388C300 344 265 297 213 272C185 258 149 247 104 237Z" stroke="rgb(0,0,0)" stroke-opacity="1" stroke-width="24" fill="rgb(0,0,0)" fill-opacity="1"></path></g></g><g><g><g><g><g transform="matrix(1,0,0,1,731.875,54.7675)"><path transform="matrix(0.00833,0,0,-0.00833,0,0)" d="M280 181L280 106C280 46 269 32 220 30L158 27L158 -3C291 0 291 0 315 0C339 0 339 0 472 -3L472 27L424 30C375 33 364 46 364 106L364 181C423 181 444 180 472 177L472 248L364 245L365 697L285 667L2 204L2 181ZM280 245L65 245L280 597Z" stroke="rgb(0,0,0)" stroke-opacity="1" stroke-width="24" fill="rgb(0,0,0)" fill-opacity="1"></path></g></g></g></g></g></g></g></g></g></g><g><g><g><g><g><g><g transform="matrix(1,0,0,1,668.90625,71.665625)"><path transform="matrix(0.0119,0,0,-0.0119,0,0)" d="M328 111L304 94C251 56 203 36 167 36C120 36 91 73 91 133C91 158 94 185 99 214C116 218 225 248 250 259C335 296 374 342 374 404C374 451 340 482 290 482C222 496 112 423 75 349C45 299 15 180 15 113C15 35 59 -11 131 -11C188 -11 244 17 336 92ZM113 274C130 343 150 386 179 412C197 428 228 440 252 440C281 440 300 420 300 388C300 344 265 297 213 272C185 258 149 247 104 237Z" stroke="rgb(0,0,0)" stroke-opacity="1" stroke-width="24" fill="rgb(0,0,0)" fill-opacity="1"></path></g></g><g><g><g><g><g transform="matrix(1,0,0,1,673.875,73.7675)"><path transform="matrix(0.00833,0,0,-0.00833,0,0)" d="M96 -20C207 16 255 39 309 85C406 168 457 283 457 417C457 586 376 689 244 689C116 689 20 589 20 455C20 340 95 256 199 256C233 256 272 267 290 282L360 340C352 172 243 49 62 5L62 -3ZM240 656C285 656 318 637 340 597C358 565 370 516 370 471C370 379 317 317 240 317C160 317 106 388 106 492C106 593 158 656 240 656Z" stroke="rgb(0,0,0)" stroke-opacity="1" stroke-width="24" fill="rgb(0,0,0)" fill-opacity="1"></path></g></g></g></g></g></g></g></g></g></g><g><g><g><g><g><g><g transform="matrix(1,0,0,1,708.90625,110.665625)"><path transform="matrix(0.0119,0,0,-0.0119,0,0)" d="M328 111L304 94C251 56 203 36 167 36C120 36 91 73 91 133C91 158 94 185 99 214C116 218 225 248 250 259C335 296 374 342 374 404C374 451 340 482 290 482C222 496 112 423 75 349C45 299 15 180 15 113C15 35 59 -11 131 -11C188 -11 244 17 336 92ZM113 274C130 343 150 386 179 412C197 428 228 440 252 440C281 440 300 420 300 388C300 344 265 297 213 272C185 258 149 247 104 237Z" stroke="rgb(0,0,0)" stroke-opacity="1" stroke-width="24" fill="rgb(0,0,0)" fill-opacity="1"></path></g></g><g><g><g><g><g transform="matrix(1,0,0,1,713.875,112.7675)"><path transform="matrix(0.00833,0,0,-0.00833,0,0)" d="M168 345C127 326 110 315 88 294C50 256 30 211 30 159C30 56 113 -20 226 -20C356 -20 464 82 464 206C464 286 427 329 313 381C404 443 436 485 436 545C436 631 365 689 259 689C140 689 53 613 53 508C53 440 80 402 168 345ZM284 295C347 267 385 218 385 164C385 80 322 14 241 14C156 14 101 74 101 167C101 240 130 286 204 331ZM223 423C160 454 128 494 128 544C128 610 176 655 247 655C320 655 368 607 368 534C368 477 343 438 278 396Z" stroke="rgb(0,0,0)" stroke-opacity="1" stroke-width="24" fill="rgb(0,0,0)" fill-opacity="1"></path></g></g></g></g></g></g></g></g></g></g><g><g><g><g><g><g><g transform="matrix(1,0,0,1,158.9375,179.859375)"><path transform="matrix(0.017,0,0,-0.017,0,0)" d="M328 111L304 94C251 56 203 36 167 36C120 36 91 73 91 133C91 158 94 185 99 214C116 218 225 248 250 259C335 296 374 342 374 404C374 451 340 482 290 482C222 496 112 423 75 349C45 299 15 180 15 113C15 35 59 -11 131 -11C188 -11 244 17 336 92ZM113 274C130 343 150 386 179 412C197 428 228 440 252 440C281 440 300 420 300 388C300 344 265 297 213 272C185 258 149 247 104 237Z" stroke="rgb(0,0,0)" stroke-opacity="1" stroke-width="24" fill="rgb(0,0,0)" fill-opacity="1"></path></g></g><g><g><g><g><g transform="matrix(1,0,0,1,166.046875,182.86875)"><path transform="matrix(0.0119,0,0,-0.0119,0,0)" d="M418 -3L418 27L366 30C311 33 301 44 301 96L301 700L60 598L67 548L217 614L217 96C217 44 206 33 152 30L96 27L96 -3C250 0 250 0 261 0C292 0 402 -3 418 -3ZM762 689C607 689 528 566 528 324C528 207 549 106 584 57C619 8 675 -20 737 -20C888 -20 964 110 964 366C964 585 899 689 762 689ZM744 654C841 654 880 556 880 316C880 103 842 15 750 15C653 15 612 116 612 360C612 571 649 654 744 654Z" stroke="rgb(0,0,0)" stroke-opacity="1" stroke-width="24" fill="rgb(0,0,0)" fill-opacity="1"></path></g></g></g></g></g></g></g></g></g></g><g><g><g><g><g><g><g transform="matrix(1,0,0,1,72.9375,119.859375)"><path transform="matrix(0.017,0,0,-0.017,0,0)" d="M328 111L304 94C251 56 203 36 167 36C120 36 91 73 91 133C91 158 94 185 99 214C116 218 225 248 250 259C335 296 374 342 374 404C374 451 340 482 290 482C222 496 112 423 75 349C45 299 15 180 15 113C15 35 59 -11 131 -11C188 -11 244 17 336 92ZM113 274C130 343 150 386 179 412C197 428 228 440 252 440C281 440 300 420 300 388C300 344 265 297 213 272C185 258 149 247 104 237Z" stroke="rgb(0,0,0)" stroke-opacity="1" stroke-width="24" fill="rgb(0,0,0)" fill-opacity="1"></path></g></g><g><g><g><g><g transform="matrix(1,0,0,1,80.046875,122.86875)"><path transform="matrix(0.0119,0,0,-0.0119,0,0)" d="M96 -20C207 16 255 39 309 85C406 168 457 283 457 417C457 586 376 689 244 689C116 689 20 589 20 455C20 340 95 256 199 256C233 256 272 267 290 282L360 340C352 172 243 49 62 5L62 -3ZM240 656C285 656 318 637 340 597C358 565 370 516 370 471C370 379 317 317 240 317C160 317 106 388 106 492C106 593 158 656 240 656Z" stroke="rgb(0,0,0)" stroke-opacity="1" stroke-width="24" fill="rgb(0,0,0)" fill-opacity="1"></path></g></g></g></g></g></g></g></g></g></g><g><g><g><g><g><g><g transform="matrix(1,0,0,1,155.9375,298.859375)"><path transform="matrix(0.017,0,0,-0.017,0,0)" d="M328 111L304 94C251 56 203 36 167 36C120 36 91 73 91 133C91 158 94 185 99 214C116 218 225 248 250 259C335 296 374 342 374 404C374 451 340 482 290 482C222 496 112 423 75 349C45 299 15 180 15 113C15 35 59 -11 131 -11C188 -11 244 17 336 92ZM113 274C130 343 150 386 179 412C197 428 228 440 252 440C281 440 300 420 300 388C300 344 265 297 213 272C185 258 149 247 104 237Z" stroke="rgb(0,0,0)" stroke-opacity="1" stroke-width="24" fill="rgb(0,0,0)" fill-opacity="1"></path></g></g><g><g><g><g><g transform="matrix(1,0,0,1,163.046875,301.86875)"><path transform="matrix(0.0119,0,0,-0.0119,0,0)" d="M418 -3L418 27L366 30C311 33 301 44 301 96L301 700L60 598L67 548L217 614L217 96C217 44 206 33 152 30L96 27L96 -3C250 0 250 0 261 0C292 0 402 -3 418 -3ZM917 -3L917 27L865 30C810 33 800 44 800 96L800 700L559 598L566 548L716 614L716 96C716 44 705 33 651 30L595 27L595 -3C749 0 749 0 760 0C791 0 901 -3 917 -3Z" stroke="rgb(0,0,0)" stroke-opacity="1" stroke-width="24" fill="rgb(0,0,0)" fill-opacity="1"></path></g></g></g></g></g></g></g></g></g></g></svg>
</svg>
