<svg xmlns="http://www.w3.org/2000/svg" xmlns:xlink="http://www.w3.org/1999/xlink" x="0" y="0" width="1062" height="515" style="
        width:1062px;
        height:515px;
        background: #FFF;
        fill: none;
">
        <svg xmlns="http://www.w3.org/2000/svg"/>
        
        <svg xmlns="http://www.w3.org/2000/svg" class="role-diagram-draw-area"><g class="shapes-region" style="stroke: black; fill: none;"><g class="grouped-shape"><g class="composite-shape"><path class="real" d=" M704.31,233.65 C704.31,209.09 724.2,189.18 748.74,189.18 C773.27,189.18 793.16,209.09 793.16,233.65 C793.16,258.22 773.27,278.13 748.74,278.13 C724.2,278.13 704.31,258.22 704.31,233.65 Z" style="stroke-width: 2; stroke: rgb(0, 0, 0); stroke-opacity: 1; fill: rgb(255, 255, 255); fill-opacity: 1; stroke-dasharray: 2.25, 3.685;"/></g><g class="composite-shape"><path class="real" d=" M928.6,354.82 C928.6,338.95 941.45,326.09 957.3,326.09 C973.14,326.09 985.99,338.95 985.99,354.82 C985.99,370.68 973.14,383.54 957.3,383.54 C941.45,383.54 928.6,370.68 928.6,354.82 Z" style="stroke-width: 2; stroke: rgb(0, 0, 0); stroke-opacity: 1; fill: rgb(245, 166, 35); fill-opacity: 1;"/></g><g class="composite-shape"><path class="real" d=" M722.25,229.08 C722.25,213.21 735.1,200.35 750.94,200.35 C766.79,200.35 779.64,213.21 779.64,229.08 C779.64,244.94 766.79,257.8 750.94,257.8 C735.1,257.8 722.25,244.94 722.25,229.08 Z" style="stroke-width: 2; stroke: rgb(65, 117, 5); stroke-opacity: 1; fill: rgb(126, 211, 33); fill-opacity: 1;"/></g><g class="composite-shape"><path class="real" d=" M687.86,221.76 C687.86,196.85 708.06,176.65 732.97,176.65 L955.94,176.65 C980.86,176.65 1001.05,196.85 1001.05,221.76 L1001.05,357.08 C1001.05,381.99 980.86,402.18 955.94,402.18 L732.97,402.18 C708.06,402.18 687.86,381.99 687.86,357.08 Z" style="stroke-width: 4; stroke: rgb(139, 87, 42); stroke-opacity: 1; fill: none; fill-opacity: 1; stroke-dasharray: 10.5, 6;"/></g><g class="arrow-line"><path class="connection real" stroke-dasharray="" d="  M930.27,360.27 L794.72,358.36" style="stroke: rgb(208, 2, 27); stroke-opacity: 1; stroke-width: 4; fill: none; fill-opacity: 1;"/><g stroke="none" fill="rgb(208,2,27)" fill-opacity="1" transform="matrix(0.9999000719197535,0.014136696038033386,-0.014136696038033386,0.9999000719197535,788.718619246862,358.27479338842977)" style="stroke: none; fill: rgb(208, 2, 27); stroke-width: 4;"><path d=" M16.97,-8.15 L0,0 L16.97,8.15 Z"/></g></g><g class="composite-shape"><path class="real" d=" M44,107.19 C44,60.13 82.16,21.97 129.22,21.97 L549.98,21.97 C597.05,21.97 635.2,60.13 635.2,107.19 L635.2,362.87 C635.2,409.93 597.05,448.09 549.98,448.09 L129.22,448.09 C82.16,448.09 44,409.93 44,362.87 Z" style="stroke-width: 4; stroke: rgb(65, 117, 5); stroke-opacity: 1; fill: none; fill-opacity: 1; stroke-dasharray: 10.5, 6;"/></g><g class="composite-shape"><path class="real" d=" M642.18,238.9 L662.52,238.9 L662.52,230.04 L676.07,247.75 L662.52,265.47 L662.52,256.61 L642.18,256.61 L650.65,247.75 Z" style="stroke-width: 3; stroke: rgb(208, 2, 27); stroke-opacity: 1; fill: none; fill-opacity: 1;"/></g><g class="arrow-line"><path class="connection real" stroke-dasharray="" d="  M779.64,229.08 L946.86,322.96" style="stroke: rgb(65, 117, 5); stroke-opacity: 1; stroke-width: 4; fill: none; fill-opacity: 1;"/><g stroke="none" fill="rgb(65,117,5)" fill-opacity="1" transform="matrix(-0.8719838457993346,-0.4895346490954467,0.4895346490954467,-0.8719838457993346,952.0966467438382,325.897376998397)" style="stroke: none; fill: rgb(65, 117, 5); stroke-width: 4;"><path d=" M16.97,-8.15 L0,0 L16.97,8.15 Z"/></g></g><g class="composite-shape"><path class="real" d=" M854.51,89.33 C854.51,44.41 890.89,8 935.76,8 C980.63,8 1017,44.41 1017,89.33 C1017,134.25 980.63,170.66 935.76,170.66 C890.89,170.66 854.51,134.25 854.51,89.33 Z" style="stroke-width: 2; stroke: rgb(184, 233, 134); stroke-opacity: 1; fill: rgb(255, 255, 255); fill-opacity: 1;"/></g><g class="composite-shape"><path class="real" d=" M730.22,363.8 C730.22,347.93 743.07,335.07 758.92,335.07 C774.77,335.07 787.61,347.93 787.61,363.8 C787.61,379.66 774.77,392.52 758.92,392.52 C743.07,392.52 730.22,379.66 730.22,363.8 Z" style="stroke-width: 2; stroke: rgb(139, 87, 42); stroke-opacity: 1; fill: rgb(208, 2, 27); fill-opacity: 1;"/></g><g class="composite-shape"><path class="real" d=" M920.36,221.61 C920.36,202.9 935.51,187.74 954.2,187.74 C972.89,187.74 988.04,202.9 988.04,221.61 C988.04,240.32 972.89,255.49 954.2,255.49 C935.51,255.49 920.36,240.32 920.36,221.61 Z" style="stroke-width: 2; stroke: rgb(128, 128, 128); stroke-opacity: 1; fill: rgb(74, 144, 226); fill-opacity: 1;"/></g><g class="arrow-line"><path class="connection real" stroke-dasharray="" d="  M747.31,189.65 C738.62,163.17 734.87,142.49 734.87,126.41 C734.87,102.29 743.26,88.42 755.99,80.8 C765.92,74.86 778.59,72.76 792.21,72.76 C799.13,72.76 806.29,73.3 813.45,74.13 C821.97,75.12 830.48,76.53 838.58,77.93 C841.09,78.37 843.55,78.8 845.96,79.23 C848.91,79.74 851.77,80.24 848.63,79.69 M750.16,188.71 C741.6,162.63 737.87,142.25 737.87,126.41 C737.87,103.79 745.52,90.56 757.53,83.38 C767.04,77.69 779.18,75.76 792.21,75.76 C799.01,75.76 806.06,76.29 813.11,77.11 C821.56,78.1 830.02,79.49 838.07,80.89 C840.57,81.32 843.04,81.76 845.45,82.18 C848.4,82.7 851.27,83.2 848.17,82.66" style="stroke: rgb(139, 87, 42); stroke-opacity: 1; stroke-width: 3; fill: none; fill-opacity: 1;"/><g stroke="rgb(139,87,42)" stroke-opacity="1" fill="rgb(139,87,42)" fill-opacity="1" transform="matrix(-0.30652607809792803,-0.9518622607530477,0.9518622607530477,-0.30652607809792803,748.736814107855,189.18043484963664)" style="stroke: rgb(139, 87, 42); fill: rgb(139, 87, 42); stroke-width: 3;"><circle cx="0" cy="0" r="5.36"/></g><g stroke="none" fill="rgb(139,87,42)" fill-opacity="1" transform="matrix(-0.9880407365071262,-0.15419307053968262,0.15419307053968262,-0.9880407365071262,858.4989539748954,82.84504132231405)" style="stroke: none; fill: rgb(139, 87, 42); stroke-width: 3;"><path d=" M16.07,-7.72 L0,0 L16.07,7.72 L10.67,0 Z"/></g></g><g class="composite-shape"><path class="real" d=" M226.96,185.71 L248.36,167.93 L273.32,179.02 L251.92,196.8 Z" style="stroke-width: 1; stroke: rgb(80, 227, 194); stroke-opacity: 1; fill: rgb(74, 144, 226); fill-opacity: 1;"/></g><g class="composite-shape"><path class="real" d=" M465.76,249.25 L472,231.04 L492.79,231.04 L499.03,249.25 L492.79,267.46 L472,267.46 Z" style="stroke-width: 1; stroke: rgb(0, 0, 0); fill: rgb(208, 2, 27); fill-opacity: 1;"/></g><g class="arrow-line"><path class="connection real" stroke-dasharray="" d="  M480.69,170.66 L480.69,225.54" style="stroke: rgb(208, 2, 27); stroke-opacity: 1; stroke-width: 3; fill: rgb(208, 2, 27); fill-opacity: 1;"/><g stroke="none" fill="rgb(208,2,27)" fill-opacity="1" transform="matrix(-1.8369701987210297e-16,-1,1,-1.8369701987210297e-16,480.6882845188285,230.53925619834712)" style="stroke: none; fill: rgb(208, 2, 27); stroke-width: 3;"><path d=" M13.22,-6.35 L0,0 L13.22,6.35 L8.78,0 Z"/></g></g><g class="arrow-line"><path class="connection real" stroke-dasharray="" d="  M461.88,66.88 L266.79,68.82" style="stroke: rgb(245, 166, 35); stroke-opacity: 1; stroke-width: 3; fill: rgb(208, 2, 27); fill-opacity: 1;"/><g stroke="none" fill="rgb(245,166,35)" fill-opacity="1" transform="matrix(0.9999505153082835,-0.009948212638373984,0.009948212638373984,0.9999505153082835,261.7883903805231,68.8739669421488)" style="stroke: none; fill: rgb(245, 166, 35); stroke-width: 3;"><path d=" M13.22,-6.35 L0,0 L13.22,6.35 L8.78,0 Z"/></g></g><g class="composite-shape"><path class="real" d=" M61.22,319.55 C61.22,313.84 65.85,309.2 71.56,309.2 C77.27,309.2 81.9,313.84 81.9,319.55 C81.9,325.27 77.27,329.9 71.56,329.9 C65.85,329.9 61.22,325.27 61.22,319.55 Z" style="stroke-width: 1; stroke: rgb(65, 117, 5); stroke-opacity: 1; fill: rgb(126, 211, 33); fill-opacity: 1;"/></g><g class="composite-shape"><path class="real" d=" M63.03,291.57 L66,282.68 L75.93,282.68 L78.91,291.57 L75.93,300.46 L66,300.46 Z" style="stroke-width: 1; stroke: rgb(0, 0, 0); fill: rgb(208, 2, 27); fill-opacity: 1;"/></g><g class="composite-shape"><path class="real" d=" M54.98,250.96 C54.98,235.31 67.67,222.62 83.33,222.62 L175.18,222.62 C190.83,222.62 203.52,235.31 203.52,250.96 L203.52,335.98 C203.52,351.64 190.83,364.32 175.18,364.32 L83.33,364.32 C67.67,364.32 54.98,351.64 54.98,335.98 Z" style="stroke-width: 1; stroke: rgb(65, 117, 5); stroke-opacity: 1; fill: none; fill-opacity: 1; stroke-dasharray: 6, 6;"/></g><g class="composite-shape"><path class="real" d=" M61.22,347.49 C61.22,341.78 65.85,337.14 71.56,337.14 C77.27,337.14 81.9,341.78 81.9,347.49 C81.9,353.21 77.27,357.84 71.56,357.84 C65.85,357.84 61.22,353.21 61.22,347.49 Z" style="stroke-width: 1; stroke: rgb(0, 0, 0); stroke-opacity: 1; fill: rgb(245, 166, 35); fill-opacity: 1;"/></g><g class="arrow-line"><path class="connection real" stroke-dasharray="" d="  M65.69,95.24 L83.84,95.07 L92.97,94.99" style="stroke: rgb(65, 117, 5); stroke-opacity: 1; stroke-width: 4; fill: rgb(65, 117, 5); fill-opacity: 1;"/><g stroke="none" fill="rgb(65,117,5)" fill-opacity="1" transform="matrix(-0.9999603847661206,0.008901061644096278,-0.008901061644096278,-0.9999603847661206,98.96940072491985,94.93907318011031)" style="stroke: none; fill: rgb(65, 117, 5); stroke-width: 4;"><path d=" M16.97,-8.15 L0,0 L16.97,8.15 Z"/></g></g><g class="arrow-line"><path class="connection real" stroke-dasharray="" d="  M62.7,120.15 L89.98,119.91" style="stroke: rgb(208, 2, 27); stroke-opacity: 1; stroke-width: 4; fill: rgb(65, 117, 5); fill-opacity: 1;"/><g stroke="none" fill="rgb(208,2,27)" fill-opacity="1" transform="matrix(-0.9999603847661206,0.008901061644096278,-0.008901061644096278,-0.9999603847661206,95.97881495086125,119.85608522659125)" style="stroke: none; fill: rgb(208, 2, 27); stroke-width: 4;"><path d=" M16.97,-8.15 L0,0 L16.97,8.15 Z"/></g></g><g class="arrow-line"><path class="connection real" stroke-dasharray="" d="  M62.7,145.12 L89.98,144.88" style="stroke: rgb(245, 166, 35); stroke-opacity: 1; stroke-width: 4; fill: rgb(65, 117, 5); fill-opacity: 1;"/><g stroke="none" fill="rgb(245,166,35)" fill-opacity="1" transform="matrix(-0.9999603847661206,0.008901061644096278,-0.008901061644096278,-0.9999603847661206,95.97881495086125,144.82445002804928)" style="stroke: none; fill: rgb(245, 166, 35); stroke-width: 4;"><path d=" M16.97,-8.15 L0,0 L16.97,8.15 Z"/></g></g><g class="arrow-line"><path class="connection real" stroke-dasharray="" d="  M957.3,326.09 L954.46,261.48" style="stroke: rgb(74, 144, 226); stroke-opacity: 1; stroke-width: 4; fill: none; fill-opacity: 1;"/><g stroke="none" fill="rgb(74,144,226)" fill-opacity="1" transform="matrix(0.04379375350861682,0.9990405933462496,-0.9990405933462496,0.04379375350861682,954.1976987447699,255.48760330578511)" style="stroke: none; fill: rgb(74, 144, 226); stroke-width: 4;"><path d=" M16.97,-8.15 L0,0 L16.97,8.15 Z"/></g></g><g class="composite-shape"><path class="real" d=" M58.95,102.87 C58.95,87.98 71.02,75.92 85.9,75.92 L168.58,75.92 C183.46,75.92 195.52,87.98 195.52,102.87 L195.52,183.7 C195.52,198.58 183.46,210.64 168.58,210.64 L85.9,210.64 C71.02,210.64 58.95,198.58 58.95,183.7 Z" style="stroke-width: 1; stroke: rgb(65, 117, 5); stroke-opacity: 1; fill: none; fill-opacity: 1; stroke-dasharray: 6, 6;"/></g><g class="composite-shape"><path class="real" d=" M550.85,148.71 C550.85,139.89 557.96,132.74 566.73,132.74 C575.51,132.74 582.62,139.89 582.62,148.71 C582.62,157.53 575.51,164.68 566.73,164.68 C557.96,164.68 550.85,157.53 550.85,148.71 Z" style="stroke-width: 1; stroke: rgb(65, 117, 5); stroke-opacity: 1; fill: rgb(126, 211, 33); fill-opacity: 1;"/></g><g class="composite-shape"><path class="real" d=" M239.13,329.33 C239.13,320.52 246.34,313.37 255.24,313.37 C264.13,313.37 271.35,320.52 271.35,329.33 C271.35,338.15 264.13,345.3 255.24,345.3 C246.34,345.3 239.13,338.15 239.13,329.33 Z" style="stroke-width: 1; stroke: rgb(0, 0, 0); fill: rgb(245, 158, 11); fill-opacity: 1;"/></g><g class="composite-shape"><path class="real" d=" M547.16,68.87 C547.16,60.06 554.37,52.91 563.27,52.91 C572.16,52.91 579.38,60.06 579.38,68.87 C579.38,77.69 572.16,84.84 563.27,84.84 C554.37,84.84 547.16,77.69 547.16,68.87 Z" style="stroke-width: 1; stroke: rgb(0, 0, 0); fill: rgb(245, 158, 11); fill-opacity: 1;"/></g><g class="arrow-line"><path class="connection real" stroke-dasharray="" d="  M553.46,160.68 L496.06,227.25" style="stroke: rgb(245, 166, 35); stroke-opacity: 1; stroke-width: 3; fill: rgb(208, 2, 27); fill-opacity: 1;"/><g stroke="none" fill="rgb(245,166,35)" fill-opacity="1" transform="matrix(0.6530241527544607,-0.7573370820970796,0.7573370820970796,0.6530241527544607,492.79479587306616,231.03817720352734)" style="stroke: none; fill: rgb(245, 166, 35); stroke-width: 3;"><path d=" M13.22,-6.35 L0,0 L13.22,6.35 L8.78,0 Z"/></g></g><g class="arrow-line"><path class="connection real" stroke-dasharray="" d="  M268.36,322.35 L354.5,285.16" style="stroke: rgb(208, 2, 27); stroke-opacity: 1; stroke-width: 3; fill: rgb(208, 2, 27); fill-opacity: 1;"/><g stroke="none" fill="rgb(208,2,27)" fill-opacity="1" transform="matrix(-0.9181008531004029,0.3963468475165564,-0.3963468475165564,-0.9181008531004029,359.0914146881387,283.18024562655705)" style="stroke: none; fill: rgb(208, 2, 27); stroke-width: 3;"><path d=" M13.22,-6.35 L0,0 L13.22,6.35 L8.78,0 Z"/></g></g><g class="arrow-line"><path class="connection real" stroke-dasharray="" d="  M63.94,192.52 L91.22,192.28" style="stroke: rgb(74, 144, 226); stroke-opacity: 1; stroke-width: 4; fill: rgb(74, 144, 226); fill-opacity: 1;"/><g stroke="none" fill="rgb(74,144,226)" fill-opacity="1" transform="matrix(-0.9999603847661206,0.008901061644096278,-0.008901061644096278,-0.9999603847661206,97.2161987934223,192.22724679174348)" style="stroke: none; fill: rgb(74, 144, 226); stroke-width: 4;"><path d=" M16.97,-8.15 L0,0 L16.97,8.15 Z"/></g></g><g class="arrow-line"><path class="connection real" stroke-dasharray="" d="  M263.37,237.52 L354.69,119.73" style="stroke: rgb(65, 117, 5); stroke-opacity: 1; stroke-width: 3; fill: none; fill-opacity: 1;"/><g stroke="none" fill="rgb(65,117,5)" fill-opacity="1" transform="matrix(-0.6126312001868028,0.7903689091542491,-0.7903689091542491,-0.6126312001868028,357.7526961850512,115.77685950413223)" style="stroke: none; fill: rgb(65, 117, 5); stroke-width: 3;"><path d=" M13.22,-6.35 L0,0 L13.22,6.35 L8.78,0 Z"/></g></g><g class="composite-shape"><path class="real" d=" M357.75,115.78 C357.75,106.96 364.97,99.81 373.86,99.81 C382.76,99.81 389.97,106.96 389.97,115.78 C389.97,124.6 382.76,131.74 373.86,131.74 C364.97,131.74 357.75,124.6 357.75,115.78 Z" style="stroke-width: 1; stroke: rgb(0, 0, 0); fill: rgb(245, 158, 11); fill-opacity: 1;"/></g><g class="composite-shape"><path class="real" d=" M551.14,317.36 C551.14,308.54 558.36,301.39 567.25,301.39 C576.15,301.39 583.37,308.54 583.37,317.36 C583.37,326.18 576.15,333.33 567.25,333.33 C558.36,333.33 551.14,326.18 551.14,317.36 Z" style="stroke-width: 1; stroke: rgb(0, 0, 0); fill: rgb(245, 158, 11); fill-opacity: 1;"/></g><g class="composite-shape"><path class="real" d=" M464.58,154.7 C464.58,145.88 471.79,138.73 480.69,138.73 C489.59,138.73 496.8,145.88 496.8,154.7 C496.8,163.51 489.59,170.66 480.69,170.66 C471.79,170.66 464.58,163.51 464.58,154.7 Z" style="stroke-width: 1; stroke: rgb(0, 0, 0); fill: rgb(245, 158, 11); fill-opacity: 1;"/></g><g class="arrow-line"><path class="connection real" stroke-dasharray="" d="  M477.76,82.85 L396.32,186.44" style="stroke: rgb(245, 166, 35); stroke-opacity: 1; stroke-width: 3; fill: rgb(208, 2, 27); fill-opacity: 1;"/><g stroke="none" fill="rgb(245,166,35)" fill-opacity="1" transform="matrix(0.6179968368992083,-0.786180583315674,0.786180583315674,0.6179968368992083,393.2324866814245,190.3723943868876)" style="stroke: none; fill: rgb(245, 166, 35); stroke-width: 3;"><path d=" M13.22,-6.35 L0,0 L13.22,6.35 L8.78,0 Z"/></g></g><g class="arrow-line"><path class="connection real" stroke-dasharray="" d="  M551.47,371.25 L396.74,285.6" style="stroke: rgb(245, 166, 35); stroke-opacity: 1; stroke-width: 3; fill: rgb(208, 2, 27); fill-opacity: 1;"/><g stroke="none" fill="rgb(245,166,35)" fill-opacity="1" transform="matrix(0.8748734329603794,0.48435160400283633,-0.48435160400283633,0.8748734329603794,392.37037498783695,283.18024562655705)" style="stroke: none; fill: rgb(245, 166, 35); stroke-width: 3;"><path d=" M13.22,-6.35 L0,0 L13.22,6.35 L8.78,0 Z"/></g></g><g class="arrow-line"><path class="connection real" stroke-dasharray="" d="  M268.61,251 L355.79,193.14" style="stroke: rgb(245, 166, 35); stroke-opacity: 1; stroke-width: 3; fill: rgb(208, 2, 27); fill-opacity: 1;"/><g stroke="none" fill="rgb(245,166,35)" fill-opacity="1" transform="matrix(-0.8332108816594288,0.5529553568637501,-0.5529553568637501,-0.8332108816594288,359.9535263817263,190.3723943868876)" style="stroke: none; fill: rgb(245, 166, 35); stroke-width: 3;"><path d=" M13.22,-6.35 L0,0 L13.22,6.35 L8.78,0 Z"/></g></g><g class="arrow-line"><path class="connection real" stroke-dasharray="" d="  M493.65,66.88 L542.16,68.69" style="stroke: rgb(65, 117, 5); stroke-opacity: 1; stroke-width: 3; fill: none; fill-opacity: 1;"/><g stroke="none" fill="rgb(65,117,5)" fill-opacity="1" transform="matrix(-0.9993025681157919,-0.03734136255123846,0.03734136255123846,-0.9993025681157919,547.1564618754279,68.87396694214877)" style="stroke: none; fill: rgb(65, 117, 5); stroke-width: 3;"><path d=" M13.22,-6.35 L0,0 L13.22,6.35 L8.78,0 Z"/></g></g><g class="arrow-line"><path class="connection real" stroke-dasharray="" d="  M463.92,72.87 L392.45,108.55" style="stroke: rgb(65, 117, 5); stroke-opacity: 1; stroke-width: 3; fill: none; fill-opacity: 1;"/><g stroke="none" fill="rgb(65,117,5)" fill-opacity="1" transform="matrix(0.8946226386991029,-0.4468224863713267,0.4468224863713267,0.8946226386991029,387.98012552301253,110.78719008264464)" style="stroke: none; fill: rgb(65, 117, 5); stroke-width: 3;"><path d=" M13.22,-6.35 L0,0 L13.22,6.35 L8.78,0 Z"/></g></g><g class="arrow-line"><path class="connection real" stroke-dasharray="" d="  M551.2,376.82 L276.28,329.68" style="stroke: rgb(65, 117, 5); stroke-opacity: 1; stroke-width: 3; fill: none; fill-opacity: 1;"/><g stroke="none" fill="rgb(65,117,5)" fill-opacity="1" transform="matrix(0.9856151131419448,0.1690054695747783,-0.1690054695747783,0.9856151131419448,271.34728033472805,328.8357438016529)" style="stroke: none; fill: rgb(65, 117, 5); stroke-width: 3;"><path d=" M13.22,-6.35 L0,0 L13.22,6.35 L8.78,0 Z"/></g></g><g class="arrow-line"><path class="connection real" stroke-dasharray="" d="  M551.14,317.36 L397.26,284.23" style="stroke: rgb(208, 2, 27); stroke-opacity: 1; stroke-width: 3; fill: rgb(208, 2, 27); fill-opacity: 1;"/><g stroke="none" fill="rgb(208,2,27)" fill-opacity="1" transform="matrix(0.9775999377647907,0.21047175982130553,-0.21047175982130553,0.9775999377647907,392.37037498783695,283.18024562655705)" style="stroke: none; fill: rgb(208, 2, 27); stroke-width: 3;"><path d=" M13.22,-6.35 L0,0 L13.22,6.35 L8.78,0 Z"/></g></g><g class="arrow-line"><path class="connection real" stroke-dasharray="" d="  M255.24,344.3 L254.7,381.81" style="stroke: rgb(74, 144, 226); stroke-opacity: 1; stroke-width: 3; fill: none; fill-opacity: 1;"/><g stroke="none" fill="rgb(74,144,226)" fill-opacity="1" transform="matrix(0.014485726138606268,-0.999895076364634,0.999895076364634,0.014485726138606268,254.6243647381484,386.8115139065895)" style="stroke: none; fill: rgb(74, 144, 226); stroke-width: 3;"><path d=" M13.22,-6.35 L0,0 L13.22,6.35 L8.78,0 Z"/></g></g><g class="arrow-line"><path class="connection real" stroke-dasharray="" d="  M357.75,115.78 L277.32,176.02" style="stroke: rgb(74, 144, 226); stroke-opacity: 1; stroke-width: 3; fill: none; fill-opacity: 1;"/><g stroke="none" fill="rgb(74,144,226)" fill-opacity="1" transform="matrix(0.8004176131778041,-0.5994427783489823,0.5994427783489823,0.8004176131778041,273.31603025468485,179.01732325400843)" style="stroke: none; fill: rgb(74, 144, 226); stroke-width: 3;"><path d=" M13.22,-6.35 L0,0 L13.22,6.35 L8.78,0 Z"/></g></g><g class="arrow-line"><path class="connection real" stroke-dasharray="" d="  M566.73,164.68 L567.24,296.39" style="stroke: rgb(208, 2, 27); stroke-opacity: 1; stroke-width: 3; fill: rgb(208, 2, 27); fill-opacity: 1;"/><g stroke="none" fill="rgb(208,2,27)" fill-opacity="1" transform="matrix(-0.0038397149192434476,-0.9999926282674982,0.9999926282674982,-0.0038397149192434476,567.2544861678393,301.39256198347107)" style="stroke: none; fill: rgb(208, 2, 27); stroke-width: 3;"><path d=" M13.22,-6.35 L0,0 L13.22,6.35 L8.78,0 Z"/></g></g><g class="arrow-line"><path class="connection real" stroke-dasharray="" d="  M61.94,167.73 L91.22,168.18" style="stroke: rgb(155, 155, 155); stroke-opacity: 1; stroke-width: 4; fill: rgb(74, 144, 226); fill-opacity: 1;"/><g stroke="none" fill="rgb(155,155,155)" fill-opacity="1" transform="matrix(-0.9998793586966922,-0.015532805679964757,0.015532805679964757,-0.9998793586966922,97.21619879342232,168.27683356860302)" style="stroke: none; fill: rgb(155, 155, 155); stroke-width: 4;"><path d=" M16.97,-8.15 L0,0 L16.97,8.15 Z"/></g></g><g class="arrow-line"><path class="connection real" stroke-dasharray="" d="  M465.76,249.25 L396.91,281.08" style="stroke: rgb(155, 155, 155); stroke-opacity: 1; stroke-width: 3; fill: rgb(208, 2, 27); fill-opacity: 1;"/><g stroke="none" fill="rgb(155,155,155)" fill-opacity="1" transform="matrix(0.9077042565081084,-0.4196105131155107,0.4196105131155107,0.9077042565081084,392.37037498783695,283.18024562655705)" style="stroke: none; fill: rgb(155, 155, 155); stroke-width: 3;"><path d=" M13.22,-6.35 L0,0 L13.22,6.35 L8.78,0 Z"/></g></g><g class="arrow-line"><path class="connection real" stroke-dasharray="" d="  M357.75,115.78 L266.28,71.07" style="stroke: rgb(208, 2, 27); stroke-opacity: 1; stroke-width: 3; fill: rgb(208, 2, 27); fill-opacity: 1;"/><g stroke="none" fill="rgb(208,2,27)" fill-opacity="1" transform="matrix(0.8984111531194788,0.43915532554043823,-0.43915532554043823,0.8984111531194788,261.7883903805231,68.8739669421488)" style="stroke: none; fill: rgb(208, 2, 27); stroke-width: 3;"><path d=" M13.22,-6.35 L0,0 L13.22,6.35 L8.78,0 Z"/></g></g><g class="composite-shape"><path class="real" d=" M915.05,66.96 C915.05,61.4 919.8,56.9 925.65,56.9 C931.51,56.9 936.25,61.4 936.25,66.96 C936.25,72.51 931.51,77.02 925.65,77.02 C919.8,77.02 915.05,72.51 915.05,66.96 Z" style="stroke-width: 1; stroke: rgb(65, 117, 5); stroke-opacity: 1; fill: rgb(126, 211, 33); fill-opacity: 1;"/></g><g class="composite-shape"><path class="real" d=" M954.93,95.9 C954.93,90.34 959.67,85.84 965.53,85.84 C971.38,85.84 976.13,90.34 976.13,95.9 C976.13,101.45 971.38,105.96 965.53,105.96 C959.67,105.96 954.93,101.45 954.93,95.9 Z" style="stroke-width: 1; stroke: rgb(65, 117, 5); stroke-opacity: 1; fill: rgb(126, 211, 33); fill-opacity: 1;"/></g><g class="composite-shape"><path class="real" d=" M919.04,134.82 C919.04,129.26 923.79,124.76 929.64,124.76 C935.5,124.76 940.24,129.26 940.24,134.82 C940.24,140.37 935.5,144.88 929.64,144.88 C923.79,144.88 919.04,140.37 919.04,134.82 Z" style="stroke-width: 1; stroke: rgb(65, 117, 5); stroke-opacity: 1; fill: rgb(126, 211, 33); fill-opacity: 1;"/></g><g class="composite-shape"><path class="real" d=" M879.17,97.89 C879.17,92.34 883.91,87.83 889.77,87.83 C895.62,87.83 900.37,92.34 900.37,97.89 C900.37,103.45 895.62,107.95 889.77,107.95 C883.91,107.95 879.17,103.45 879.17,97.89 Z" style="stroke-width: 1; stroke: rgb(65, 117, 5); stroke-opacity: 1; fill: rgb(126, 211, 33); fill-opacity: 1;"/></g><g class="arrow-line"><path class="connection real" stroke-dasharray="" d="  M757.82,258.48 L758.83,329.07" style="stroke: rgb(245, 166, 35); stroke-opacity: 1; stroke-width: 4; fill: none; fill-opacity: 1;"/><g stroke="none" fill="rgb(245,166,35)" fill-opacity="1" transform="matrix(-0.014485726138606636,-0.999895076364634,0.999895076364634,-0.014485726138606636,758.91948347067,335.07283057851237)" style="stroke: none; fill: rgb(245, 166, 35); stroke-width: 4;"><path d=" M16.97,-8.15 L0,0 L16.97,8.15 Z"/></g></g><g class="composite-shape"><path class="real" d=" M233.22,404.59 L254.62,386.81 L279.58,397.9 L258.18,415.68 Z" style="stroke-width: 1; stroke: rgb(80, 227, 194); stroke-opacity: 1; fill: rgb(74, 144, 226); fill-opacity: 1;"/></g><g class="composite-shape"><path class="real" d=" M57.45,262.61 L68.12,253.75 L78.91,258.54 L68.24,267.41 Z" style="stroke-width: 1; stroke: rgb(80, 227, 194); stroke-opacity: 1; fill: rgb(74, 144, 226); fill-opacity: 1;"/></g><g class="composite-shape"><path class="real" d=" M461.88,66.88 C461.88,58.06 468.99,50.91 477.76,50.91 C486.54,50.91 493.65,58.06 493.65,66.88 C493.65,75.7 486.54,82.85 477.76,82.85 C468.99,82.85 461.88,75.7 461.88,66.88 Z" style="stroke-width: 1; stroke: rgb(65, 117, 5); stroke-opacity: 1; fill: rgb(126, 211, 33); fill-opacity: 1;"/></g><g class="composite-shape"><path class="real" d=" M236.84,251 C236.84,242.18 243.95,235.03 252.72,235.03 C261.49,235.03 268.61,242.18 268.61,251 C268.61,259.82 261.49,266.96 252.72,266.96 C243.95,266.96 236.84,259.82 236.84,251 Z" style="stroke-width: 1; stroke: rgb(65, 117, 5); stroke-opacity: 1; fill: rgb(126, 211, 33); fill-opacity: 1;"/></g><g class="composite-shape"><path class="real" d=" M551.2,376.82 C551.2,368 558.31,360.85 567.08,360.85 C575.85,360.85 582.96,368 582.96,376.82 C582.96,385.64 575.85,392.78 567.08,392.78 C558.31,392.78 551.2,385.64 551.2,376.82 Z" style="stroke-width: 1; stroke: rgb(65, 117, 5); stroke-opacity: 1; fill: rgb(126, 211, 33); fill-opacity: 1;"/></g><g class="composite-shape"><path class="real" d=" M359.95,190.37 L366.19,172.16 L386.99,172.16 L393.23,190.37 L386.99,208.58 L366.19,208.58 Z" style="stroke-width: 1; stroke: rgb(0, 0, 0); fill: rgb(208, 2, 27); fill-opacity: 1;"/></g><g class="composite-shape"><path class="real" d=" M359.09,283.18 L365.33,264.97 L386.13,264.97 L392.37,283.18 L386.13,301.39 L365.33,301.39 Z" style="stroke-width: 1; stroke: rgb(0, 0, 0); fill: rgb(208, 2, 27); fill-opacity: 1;"/></g><g class="arrow-line"><path class="connection real" stroke-dasharray="" d="  M375.02,264.47 L376.06,213.58" style="stroke: rgb(208, 2, 27); stroke-opacity: 1; stroke-width: 3; fill: rgb(208, 2, 27); fill-opacity: 1;"/><g stroke="none" fill="rgb(208,2,27)" fill-opacity="1" transform="matrix(-0.020418933094800654,0.9997915118519811,-0.9997915118519811,-0.020418933094800654,376.16195068478163,208.58471074380168)" style="stroke: none; fill: rgb(208, 2, 27); stroke-width: 3;"><path d=" M13.22,-6.35 L0,0 L13.22,6.35 L8.78,0 Z"/></g></g><g class="composite-shape"><path class="real" d=" M228.51,68.87 L234.75,50.66 L255.55,50.66 L261.79,68.87 L255.55,87.09 L234.75,87.09 Z" style="stroke-width: 1; stroke: rgb(0, 0, 0); fill: rgb(208, 2, 27); fill-opacity: 1;"/></g></g><g/></g><g/><g/><g/></svg>
        <svg xmlns="http://www.w3.org/2000/svg" xmlns:xlink="http://www.w3.org/1999/xlink" width="1060" height="513" style="width:1060px;height:513px;font-family:Asana-Math, Asana;background:#FFF;"><g><g><g><text x="226.4765625" y="467.296875" style="white-space:pre;stroke:none;fill:rgb(0,0,0);fill-opacity:1;font-size:15px;font-family:Arial, Helvetica, sans-serif;font-weight:700;font-style:normal;dominant-baseline:text-before-edge;text-decoration:none;">Knowledge graph</text></g></g></g><g><g><g><text x="802.8359375" y="439.359375" style="white-space:pre;stroke:none;fill:rgb(0,0,0);fill-opacity:1;font-size:15px;font-family:Arial, Helvetica, sans-serif;font-weight:700;font-style:normal;dominant-baseline:text-before-edge;text-decoration:none;">Model  graph</text></g></g></g><g><g><g><text x="101.71875" y="112.2265625" style="white-space:pre;stroke:none;fill:rgb(0,0,0);fill-opacity:1;font-size:12.15px;font-family:Arial, Helvetica, sans-serif;font-weight:700;font-style:normal;dominant-baseline:text-before-edge;text-decoration:none;direction:rtl;text-anchor:end;">Assoc</text></g></g></g><g><g><g><text x="105.4765625" y="85.796875" style="white-space:pre;stroke:none;fill:rgb(0,0,0);fill-opacity:1;font-size:12.15px;font-family:Arial, Helvetica, sans-serif;font-weight:700;font-style:normal;dominant-baseline:text-before-edge;text-decoration:none;direction:rtl;text-anchor:end;">binds</text></g></g></g><g><g><g><text x="102.640625" y="139.296875" style="white-space:pre;stroke:none;fill:rgb(0,0,0);fill-opacity:1;font-size:12.15px;font-family:Arial, Helvetica, sans-serif;font-weight:700;font-style:normal;dominant-baseline:text-before-edge;text-decoration:none;direction:rtl;text-anchor:end;">Treat</text></g></g></g><g><g><g><text x="536.25" y="116.4765625" style="white-space:pre;stroke:none;fill:rgb(0,0,0);fill-opacity:1;font-size:12.15px;font-family:Arial, Helvetica, sans-serif;font-weight:700;font-style:normal;dominant-baseline:text-before-edge;text-decoration:none;direction:rtl;text-anchor:end;">Metformin</text></g></g></g><g><g><g><text x="459.6875" y="30.8125" style="white-space:pre;stroke:none;fill:rgb(0,0,0);fill-opacity:1;font-size:12.15px;font-family:Arial, Helvetica, sans-serif;font-weight:700;font-style:normal;dominant-baseline:text-before-edge;text-decoration:none;direction:rtl;text-anchor:end;">Aspirin</text></g></g></g><g><g><g><text x="225.15625" y="269.15625" style="white-space:pre;stroke:none;fill:rgb(0,0,0);fill-opacity:1;font-size:12.15px;font-family:Arial, Helvetica, sans-serif;font-weight:700;font-style:normal;dominant-baseline:text-before-edge;text-decoration:none;direction:rtl;text-anchor:end;">Ibuprofen</text></g></g></g><g><g><g><text x="219.6953125" y="131.5" style="white-space:pre;stroke:none;fill:rgb(0,0,0);fill-opacity:1;font-size:10.8px;font-family:Arial, Helvetica, sans-serif;font-weight:700;font-style:normal;dominant-baseline:text-before-edge;text-decoration:none;direction:rtl;text-anchor:end;">Inflammatory </text></g></g><g><g><text x="231.1015625" y="150.390625" style="white-space:pre;stroke:none;fill:rgb(0,0,0);fill-opacity:1;font-size:10.8px;font-family:Arial, Helvetica, sans-serif;font-weight:700;font-style:normal;dominant-baseline:text-before-edge;text-decoration:none;direction:rtl;text-anchor:end;">response</text></g></g></g><g><g><g><text x="161.640625" y="419.203125" style="white-space:pre;stroke:none;fill:rgb(0,0,0);fill-opacity:1;font-size:12.15px;font-family:Arial, Helvetica, sans-serif;font-weight:700;font-style:normal;dominant-baseline:text-before-edge;text-decoration:none;direction:rtl;text-anchor:end;">Cholesterol biosynthetic process</text></g></g></g><g><g><g><text x="443.1875" y="269.171875" style="white-space:pre;stroke:none;fill:rgb(0,0,0);fill-opacity:1;font-size:12.15px;font-family:Arial, Helvetica, sans-serif;font-weight:700;font-style:normal;dominant-baseline:text-before-edge;text-decoration:none;direction:rtl;text-anchor:end;">Type 2 Diabetes</text></g></g></g><g><g><g><text x="230.9921875" y="34.171875" style="white-space:pre;stroke:none;fill:rgb(0,0,0);fill-opacity:1;font-size:12.15px;font-family:Arial, Helvetica, sans-serif;font-weight:700;font-style:normal;dominant-baseline:text-before-edge;text-decoration:none;direction:rtl;text-anchor:end;">Pain</text></g></g></g><g><g><g><text x="235.1640625" y="300.078125" style="white-space:pre;stroke:none;fill:rgb(0,0,0);fill-opacity:1;font-size:12.15px;font-family:Arial, Helvetica, sans-serif;font-weight:700;font-style:normal;dominant-baseline:text-before-edge;text-decoration:none;direction:rtl;text-anchor:end;">HMGCR</text></g></g></g><g><g><g><text x="543.0234375" y="37.640625" style="white-space:pre;stroke:none;fill:rgb(0,0,0);fill-opacity:1;font-size:12.15px;font-family:Arial, Helvetica, sans-serif;font-weight:700;font-style:normal;dominant-baseline:text-before-edge;text-decoration:none;direction:rtl;text-anchor:end;">PTGS1</text></g></g></g><g><g><g><text x="97.96875" y="184.265625" style="white-space:pre;stroke:none;fill:rgb(0,0,0);fill-opacity:1;font-size:12.15px;font-family:Arial, Helvetica, sans-serif;font-weight:700;font-style:normal;dominant-baseline:text-before-edge;text-decoration:none;direction:rtl;text-anchor:end;">participates_in</text></g></g></g><g><g><g><text x="318.8984375" y="83.546875" style="white-space:pre;stroke:none;fill:rgb(0,0,0);fill-opacity:1;font-size:12.15px;font-family:Arial, Helvetica, sans-serif;font-weight:700;font-style:normal;dominant-baseline:text-before-edge;text-decoration:none;direction:rtl;text-anchor:end;">PTGS2</text></g></g></g><g><g><g><text x="577.1640625" y="283.140625" style="white-space:pre;stroke:none;fill:rgb(0,0,0);fill-opacity:1;font-size:12.15px;font-family:Arial, Helvetica, sans-serif;font-weight:700;font-style:normal;dominant-baseline:text-before-edge;text-decoration:none;direction:rtl;text-anchor:end;">LDLR</text></g></g></g><g><g><g><text x="460.2890625" y="122.46875" style="white-space:pre;stroke:none;fill:rgb(0,0,0);fill-opacity:1;font-size:12.15px;font-family:Arial, Helvetica, sans-serif;font-weight:700;font-style:normal;dominant-baseline:text-before-edge;text-decoration:none;direction:rtl;text-anchor:end;">TCF7L2</text></g></g></g><g><g><g><text x="530.4609375" y="403.03125" style="white-space:pre;stroke:none;fill:rgb(0,0,0);fill-opacity:1;font-size:12.15px;font-family:Arial, Helvetica, sans-serif;font-weight:700;font-style:normal;dominant-baseline:text-before-edge;text-decoration:none;direction:rtl;text-anchor:end;">Atorvastatin</text></g></g></g><g><g><g><text x="310.3125" y="305.828125" style="white-space:pre;stroke:none;fill:rgb(0,0,0);fill-opacity:1;font-size:12.15px;font-family:Arial, Helvetica, sans-serif;font-weight:700;font-style:normal;dominant-baseline:text-before-edge;text-decoration:none;direction:rtl;text-anchor:end;">Hypercholesterolemia</text></g></g></g><g><g><g><text x="333.125" y="153.390625" style="white-space:pre;stroke:none;fill:rgb(0,0,0);fill-opacity:1;font-size:12.15px;font-family:Arial, Helvetica, sans-serif;font-weight:700;font-style:normal;dominant-baseline:text-before-edge;text-decoration:none;direction:rtl;text-anchor:end;">Inflammation</text></g></g></g><g><g><g><text x="101.640625" y="161.25" style="white-space:pre;stroke:none;fill:rgb(0,0,0);fill-opacity:1;font-size:12.15px;font-family:Arial, Helvetica, sans-serif;font-weight:700;font-style:normal;dominant-baseline:text-before-edge;text-decoration:none;direction:rtl;text-anchor:end;">comorbid_with </text></g></g></g><g><g><g><text x="82.125" y="253.59375" style="white-space:pre;stroke:none;fill:rgb(0,0,0);fill-opacity:1;font-size:12.15px;font-family:Arial, Helvetica, sans-serif;font-weight:700;font-style:normal;dominant-baseline:text-before-edge;text-decoration:none;direction:rtl;text-anchor:end;">Biological Process</text></g></g></g><g><g><g><text x="84.59375" y="286.390625" style="white-space:pre;stroke:none;fill:rgb(0,0,0);fill-opacity:1;font-size:12.15px;font-family:Arial, Helvetica, sans-serif;font-weight:700;font-style:normal;dominant-baseline:text-before-edge;text-decoration:none;direction:rtl;text-anchor:end;">Disease</text></g></g></g><g><g><g><text x="85.046875" y="314.109375" style="white-space:pre;stroke:none;fill:rgb(0,0,0);fill-opacity:1;font-size:12.15px;font-family:Arial, Helvetica, sans-serif;font-weight:700;font-style:normal;dominant-baseline:text-before-edge;text-decoration:none;direction:rtl;text-anchor:end;">Drug</text></g></g></g><g><g><g><text x="952.890625" y="108.625" style="white-space:pre;stroke:none;fill:rgb(0,0,0);fill-opacity:1;font-size:9.45px;font-family:Arial, Helvetica, sans-serif;font-weight:700;font-style:normal;dominant-baseline:text-before-edge;text-decoration:none;direction:rtl;text-anchor:end;">Aspirin</text></g></g></g><g><g><g><text x="908.1875" y="148.46875" style="white-space:pre;stroke:none;fill:rgb(0,0,0);fill-opacity:1;font-size:9.45px;font-family:Arial, Helvetica, sans-serif;font-weight:700;font-style:normal;dominant-baseline:text-before-edge;text-decoration:none;direction:rtl;text-anchor:end;">Atorvastatin</text></g></g></g><g><g><g><text x="872.15625" y="109.5625" style="white-space:pre;stroke:none;fill:rgb(0,0,0);fill-opacity:1;font-size:9.45px;font-family:Arial, Helvetica, sans-serif;font-weight:700;font-style:normal;dominant-baseline:text-before-edge;text-decoration:none;direction:rtl;text-anchor:end;">Metformin</text></g></g></g><g><g><g><text x="907.40625" y="37.796875" style="white-space:pre;stroke:none;fill:rgb(0,0,0);fill-opacity:1;font-size:9.45px;font-family:Arial, Helvetica, sans-serif;font-weight:700;font-style:normal;dominant-baseline:text-before-edge;text-decoration:none;direction:rtl;text-anchor:end;">Ibuprofen</text></g></g></g><g><g><g><text x="741.90625" y="223.6796875" style="white-space:pre;stroke:none;fill:rgb(255,255,255);fill-opacity:1;font-size:9.45px;font-family:Arial, Helvetica, sans-serif;font-weight:700;font-style:normal;dominant-baseline:text-before-edge;text-decoration:none;direction:rtl;text-anchor:end;">Drug</text></g></g></g><g><g><g><text x="742.5" y="356.0234375" style="white-space:pre;stroke:none;fill:rgb(255,255,255);fill-opacity:1;font-size:9.45px;font-family:Arial, Helvetica, sans-serif;font-weight:700;font-style:normal;dominant-baseline:text-before-edge;text-decoration:none;direction:rtl;text-anchor:end;">Disease</text></g></g></g><g><g><g><text x="946.671875" y="347.9296875" style="white-space:pre;stroke:none;fill:rgb(255,255,255);fill-opacity:1;font-size:9.45px;font-family:Arial, Helvetica, sans-serif;font-weight:700;font-style:normal;dominant-baseline:text-before-edge;text-decoration:none;direction:rtl;text-anchor:end;">Gene</text></g></g></g><g><g><g><text x="930.15625" y="206.953125" style="white-space:pre;stroke:none;fill:rgb(255,255,255);fill-opacity:1;font-size:8.4px;font-family:Arial, Helvetica, sans-serif;font-weight:700;font-style:normal;dominant-baseline:text-before-edge;text-decoration:none;direction:rtl;text-anchor:end;">Biological </text></g></g><g><g><text x="930.15625" y="223.75" style="white-space:pre;stroke:none;fill:rgb(255,255,255);fill-opacity:1;font-size:8.4px;font-family:Arial, Helvetica, sans-serif;font-weight:700;font-style:normal;dominant-baseline:text-before-edge;text-decoration:none;direction:rtl;text-anchor:end;">Process</text></g></g></g><g><g><g><text x="85.984375" y="339.9375" style="white-space:pre;stroke:none;fill:rgb(0,0,0);fill-opacity:1;font-size:12.15px;font-family:Arial, Helvetica, sans-serif;font-weight:700;font-style:normal;dominant-baseline:text-before-edge;text-decoration:none;direction:rtl;text-anchor:end;">Gene</text></g></g></g></svg>
</svg>
