<svg xmlns="http://www.w3.org/2000/svg" xmlns:xlink="http://www.w3.org/1999/xlink" x="0" y="0" width="1062" height="882" style="
        width:1062px;
        height:882px;
        background: #FFF;
        fill: none;
">
        <svg xmlns="http://www.w3.org/2000/svg"/>
        
        <svg xmlns="http://www.w3.org/2000/svg" class="role-diagram-draw-area"><g class="shapes-region" style="stroke: black; fill: none;"><g class="grouped-shape"><g class="composite-shape"><path class="real" d=" M673.31,413.65 C673.31,389.09 693.2,369.18 717.74,369.18 C742.27,369.18 762.16,389.09 762.16,413.65 C762.16,438.22 742.27,458.13 717.74,458.13 C693.2,458.13 673.31,438.22 673.31,413.65 Z" style="stroke-width: 2; stroke: rgb(0, 0, 0); stroke-opacity: 1; fill: rgb(255, 255, 255); fill-opacity: 1; stroke-dasharray: 2.25, 3.685;"/></g><g class="composite-shape"><path class="real" d=" M897.6,534.82 C897.6,518.95 910.45,506.09 926.3,506.09 C942.14,506.09 954.99,518.95 954.99,534.82 C954.99,550.68 942.14,563.54 926.3,563.54 C910.45,563.54 897.6,550.68 897.6,534.82 Z" style="stroke-width: 2; stroke: rgb(0, 0, 0); stroke-opacity: 1; fill: rgb(245, 166, 35); fill-opacity: 1;"/></g><g class="composite-shape"><path class="real" d=" M691.25,409.08 C691.25,393.21 704.1,380.35 719.94,380.35 C735.79,380.35 748.64,393.21 748.64,409.08 C748.64,424.94 735.79,437.8 719.94,437.8 C704.1,437.8 691.25,424.94 691.25,409.08 Z" style="stroke-width: 2; stroke: rgb(65, 117, 5); stroke-opacity: 1; fill: rgb(126, 211, 33); fill-opacity: 1;"/></g><g class="composite-shape"><path class="real" d=" M656.86,401.76 C656.86,376.85 677.06,356.65 701.97,356.65 L924.94,356.65 C949.86,356.65 970.05,376.85 970.05,401.76 L970.05,537.08 C970.05,561.99 949.86,582.18 924.94,582.18 L701.97,582.18 C677.06,582.18 656.86,561.99 656.86,537.08 Z" style="stroke-width: 4; stroke: rgb(139, 87, 42); stroke-opacity: 1; fill: none; fill-opacity: 1; stroke-dasharray: 10.5, 6;"/></g><g class="arrow-line"><path class="connection real" stroke-dasharray="" d="  M899.27,540.27 L763.72,538.36" style="stroke: rgb(208, 2, 27); stroke-opacity: 1; stroke-width: 4; fill: none; fill-opacity: 1;"/><g stroke="none" fill="rgb(208,2,27)" fill-opacity="1" transform="matrix(0.9999000719197535,0.014136696038033386,-0.014136696038033386,0.9999000719197535,757.718619246862,538.2747933884298)" style="stroke: none; fill: rgb(208, 2, 27); stroke-width: 4;"><path d=" M16.97,-8.15 L0,0 L16.97,8.15 Z"/></g></g><g class="composite-shape"><path class="real" d=" M13,287.19 C13,240.13 51.16,201.97 98.22,201.97 L518.98,201.97 C566.05,201.97 604.2,240.13 604.2,287.19 L604.2,542.87 C604.2,589.93 566.05,628.09 518.98,628.09 L98.22,628.09 C51.16,628.09 13,589.93 13,542.87 Z" style="stroke-width: 4; stroke: rgb(65, 117, 5); stroke-opacity: 1; fill: none; fill-opacity: 1; stroke-dasharray: 10.5, 6;"/></g><g class="composite-shape"><path class="real" d=" M611.18,418.9 L631.52,418.9 L631.52,410.04 L645.07,427.75 L631.52,445.47 L631.52,436.61 L611.18,436.61 L619.65,427.75 Z" style="stroke-width: 3; stroke: rgb(208, 2, 27); stroke-opacity: 1; fill: none; fill-opacity: 1;"/></g><g class="arrow-line"><path class="connection real" stroke-dasharray="" d="  M748.64,409.08 L915.86,502.96" style="stroke: rgb(65, 117, 5); stroke-opacity: 1; stroke-width: 4; fill: none; fill-opacity: 1;"/><g stroke="none" fill="rgb(65,117,5)" fill-opacity="1" transform="matrix(-0.8719838457993346,-0.4895346490954467,0.4895346490954467,-0.8719838457993346,921.0966467438383,505.897376998397)" style="stroke: none; fill: rgb(65, 117, 5); stroke-width: 4;"><path d=" M16.97,-8.15 L0,0 L16.97,8.15 Z"/></g></g><g class="composite-shape"><path class="real" d=" M823.51,269.33 C823.51,224.41 859.89,188 904.76,188 C949.63,188 986,224.41 986,269.33 C986,314.25 949.63,350.66 904.76,350.66 C859.89,350.66 823.51,314.25 823.51,269.33 Z" style="stroke-width: 2; stroke: rgb(184, 233, 134); stroke-opacity: 1; fill: rgb(255, 255, 255); fill-opacity: 1;"/></g><g class="composite-shape"><path class="real" d=" M699.22,543.8 C699.22,527.93 712.07,515.07 727.92,515.07 C743.77,515.07 756.61,527.93 756.61,543.8 C756.61,559.66 743.77,572.52 727.92,572.52 C712.07,572.52 699.22,559.66 699.22,543.8 Z" style="stroke-width: 2; stroke: rgb(139, 87, 42); stroke-opacity: 1; fill: rgb(208, 2, 27); fill-opacity: 1;"/></g><g class="composite-shape"><path class="real" d=" M889.36,401.61 C889.36,382.9 904.51,367.74 923.2,367.74 C941.89,367.74 957.04,382.9 957.04,401.61 C957.04,420.32 941.89,435.49 923.2,435.49 C904.51,435.49 889.36,420.32 889.36,401.61 Z" style="stroke-width: 2; stroke: rgb(128, 128, 128); stroke-opacity: 1; fill: rgb(74, 144, 226); fill-opacity: 1;"/></g><g class="arrow-line"><path class="connection real" stroke-dasharray="" d="  M716.31,369.65 C707.62,343.17 703.87,322.49 703.87,306.41 C703.87,282.29 712.26,268.42 724.99,260.8 C734.92,254.86 747.59,252.76 761.21,252.76 C768.13,252.76 775.29,253.3 782.45,254.13 C790.97,255.12 799.48,256.53 807.58,257.93 C810.09,258.37 812.55,258.8 814.96,259.23 C817.91,259.74 820.77,260.24 817.63,259.69 M719.16,368.71 C710.6,342.63 706.87,322.25 706.87,306.41 C706.87,283.79 714.52,270.56 726.53,263.38 C736.04,257.69 748.18,255.76 761.21,255.76 C768.01,255.76 775.06,256.29 782.11,257.11 C790.56,258.1 799.02,259.49 807.07,260.89 C809.57,261.32 812.04,261.76 814.45,262.18 C817.4,262.7 820.27,263.2 817.17,262.66" style="stroke: rgb(139, 87, 42); stroke-opacity: 1; stroke-width: 3; fill: none; fill-opacity: 1;"/><g stroke="rgb(139,87,42)" stroke-opacity="1" fill="rgb(139,87,42)" fill-opacity="1" transform="matrix(-0.30652607809792803,-0.9518622607530477,0.9518622607530477,-0.30652607809792803,717.736814107855,369.18043484963664)" style="stroke: rgb(139, 87, 42); fill: rgb(139, 87, 42); stroke-width: 3;"><circle cx="0" cy="0" r="5.36"/></g><g stroke="none" fill="rgb(139,87,42)" fill-opacity="1" transform="matrix(-0.9880407365071262,-0.15419307053968262,0.15419307053968262,-0.9880407365071262,827.4989539748952,262.84504132231405)" style="stroke: none; fill: rgb(139, 87, 42); stroke-width: 3;"><path d=" M16.07,-7.72 L0,0 L16.07,7.72 L10.67,0 Z"/></g></g><g class="composite-shape"><path class="real" d=" M195.96,365.71 L217.36,347.93 L242.32,359.02 L220.92,376.8 Z" style="stroke-width: 1; stroke: rgb(80, 227, 194); stroke-opacity: 1; fill: rgb(74, 144, 226); fill-opacity: 1;"/></g><g class="composite-shape"><path class="real" d=" M434.76,429.25 L441,411.04 L461.79,411.04 L468.03,429.25 L461.79,447.46 L441,447.46 Z" style="stroke-width: 1; stroke: rgb(0, 0, 0); fill: rgb(208, 2, 27); fill-opacity: 1;"/></g><g class="arrow-line"><path class="connection real" stroke-dasharray="" d="  M449.69,350.66 L449.69,405.54" style="stroke: rgb(208, 2, 27); stroke-opacity: 1; stroke-width: 3; fill: rgb(208, 2, 27); fill-opacity: 1;"/><g stroke="none" fill="rgb(208,2,27)" fill-opacity="1" transform="matrix(-1.8369701987210297e-16,-1,1,-1.8369701987210297e-16,449.6882845188285,410.5392561983471)" style="stroke: none; fill: rgb(208, 2, 27); stroke-width: 3;"><path d=" M13.22,-6.35 L0,0 L13.22,6.35 L8.78,0 Z"/></g></g><g class="arrow-line"><path class="connection real" stroke-dasharray="" d="  M430.88,246.88 L235.79,248.82" style="stroke: rgb(245, 166, 35); stroke-opacity: 1; stroke-width: 3; fill: rgb(208, 2, 27); fill-opacity: 1;"/><g stroke="none" fill="rgb(245,166,35)" fill-opacity="1" transform="matrix(0.9999505153082835,-0.009948212638373984,0.009948212638373984,0.9999505153082835,230.78839038052308,248.8739669421488)" style="stroke: none; fill: rgb(245, 166, 35); stroke-width: 3;"><path d=" M13.22,-6.35 L0,0 L13.22,6.35 L8.78,0 Z"/></g></g><g class="composite-shape"><path class="real" d=" M30.22,499.55 C30.22,493.84 34.85,489.2 40.56,489.2 C46.27,489.2 50.9,493.84 50.9,499.55 C50.9,505.27 46.27,509.9 40.56,509.9 C34.85,509.9 30.22,505.27 30.22,499.55 Z" style="stroke-width: 1; stroke: rgb(65, 117, 5); stroke-opacity: 1; fill: rgb(126, 211, 33); fill-opacity: 1;"/></g><g class="composite-shape"><path class="real" d=" M32.03,471.57 L35,462.68 L44.93,462.68 L47.91,471.57 L44.93,480.46 L35,480.46 Z" style="stroke-width: 1; stroke: rgb(0, 0, 0); fill: rgb(208, 2, 27); fill-opacity: 1;"/></g><g class="composite-shape"><path class="real" d=" M23.98,430.96 C23.98,415.31 36.67,402.62 52.33,402.62 L144.18,402.62 C159.83,402.62 172.52,415.31 172.52,430.96 L172.52,515.98 C172.52,531.64 159.83,544.32 144.18,544.32 L52.33,544.32 C36.67,544.32 23.98,531.64 23.98,515.98 Z" style="stroke-width: 1; stroke: rgb(65, 117, 5); stroke-opacity: 1; fill: none; fill-opacity: 1; stroke-dasharray: 6, 6;"/></g><g class="composite-shape"><path class="real" d=" M30.22,527.49 C30.22,521.78 34.85,517.14 40.56,517.14 C46.27,517.14 50.9,521.78 50.9,527.49 C50.9,533.21 46.27,537.84 40.56,537.84 C34.85,537.84 30.22,533.21 30.22,527.49 Z" style="stroke-width: 1; stroke: rgb(0, 0, 0); stroke-opacity: 1; fill: rgb(245, 166, 35); fill-opacity: 1;"/></g><g class="arrow-line"><path class="connection real" stroke-dasharray="" d="  M34.69,275.24 L52.84,275.07 L61.97,274.99" style="stroke: rgb(65, 117, 5); stroke-opacity: 1; stroke-width: 4; fill: rgb(65, 117, 5); fill-opacity: 1;"/><g stroke="none" fill="rgb(65,117,5)" fill-opacity="1" transform="matrix(-0.9999603847661206,0.008901061644096278,-0.008901061644096278,-0.9999603847661206,67.96940072491984,274.93907318011026)" style="stroke: none; fill: rgb(65, 117, 5); stroke-width: 4;"><path d=" M16.97,-8.15 L0,0 L16.97,8.15 Z"/></g></g><g class="arrow-line"><path class="connection real" stroke-dasharray="" d="  M31.7,300.15 L58.98,299.91" style="stroke: rgb(208, 2, 27); stroke-opacity: 1; stroke-width: 4; fill: rgb(65, 117, 5); fill-opacity: 1;"/><g stroke="none" fill="rgb(208,2,27)" fill-opacity="1" transform="matrix(-0.9999603847661206,0.008901061644096278,-0.008901061644096278,-0.9999603847661206,64.97881495086123,299.85608522659123)" style="stroke: none; fill: rgb(208, 2, 27); stroke-width: 4;"><path d=" M16.97,-8.15 L0,0 L16.97,8.15 Z"/></g></g><g class="arrow-line"><path class="connection real" stroke-dasharray="" d="  M31.7,325.12 L58.98,324.88" style="stroke: rgb(245, 166, 35); stroke-opacity: 1; stroke-width: 4; fill: rgb(65, 117, 5); fill-opacity: 1;"/><g stroke="none" fill="rgb(245,166,35)" fill-opacity="1" transform="matrix(-0.9999603847661206,0.008901061644096278,-0.008901061644096278,-0.9999603847661206,64.97881495086123,324.82445002804934)" style="stroke: none; fill: rgb(245, 166, 35); stroke-width: 4;"><path d=" M16.97,-8.15 L0,0 L16.97,8.15 Z"/></g></g><g class="arrow-line"><path class="connection real" stroke-dasharray="" d="  M926.3,506.09 L923.46,441.48" style="stroke: rgb(74, 144, 226); stroke-opacity: 1; stroke-width: 4; fill: none; fill-opacity: 1;"/><g stroke="none" fill="rgb(74,144,226)" fill-opacity="1" transform="matrix(0.04379375350861682,0.9990405933462496,-0.9990405933462496,0.04379375350861682,923.1976987447699,435.4876033057851)" style="stroke: none; fill: rgb(74, 144, 226); stroke-width: 4;"><path d=" M16.97,-8.15 L0,0 L16.97,8.15 Z"/></g></g><g class="composite-shape"><path class="real" d=" M27.95,282.87 C27.95,267.98 40.02,255.92 54.9,255.92 L137.58,255.92 C152.46,255.92 164.52,267.98 164.52,282.87 L164.52,363.7 C164.52,378.58 152.46,390.64 137.58,390.64 L54.9,390.64 C40.02,390.64 27.95,378.58 27.95,363.7 Z" style="stroke-width: 1; stroke: rgb(65, 117, 5); stroke-opacity: 1; fill: none; fill-opacity: 1; stroke-dasharray: 6, 6;"/></g><g class="composite-shape"><path class="real" d=" M519.85,328.71 C519.85,319.89 526.96,312.74 535.73,312.74 C544.51,312.74 551.62,319.89 551.62,328.71 C551.62,337.53 544.51,344.68 535.73,344.68 C526.96,344.68 519.85,337.53 519.85,328.71 Z" style="stroke-width: 1; stroke: rgb(65, 117, 5); stroke-opacity: 1; fill: rgb(126, 211, 33); fill-opacity: 1;"/></g><g class="composite-shape"><path class="real" d=" M208.13,509.33 C208.13,500.52 215.34,493.37 224.24,493.37 C233.13,493.37 240.35,500.52 240.35,509.33 C240.35,518.15 233.13,525.3 224.24,525.3 C215.34,525.3 208.13,518.15 208.13,509.33 Z" style="stroke-width: 1; stroke: rgb(0, 0, 0); fill: rgb(245, 158, 11); fill-opacity: 1;"/></g><g class="composite-shape"><path class="real" d=" M516.16,248.87 C516.16,240.06 523.37,232.91 532.27,232.91 C541.16,232.91 548.38,240.06 548.38,248.87 C548.38,257.69 541.16,264.84 532.27,264.84 C523.37,264.84 516.16,257.69 516.16,248.87 Z" style="stroke-width: 1; stroke: rgb(0, 0, 0); fill: rgb(245, 158, 11); fill-opacity: 1;"/></g><g class="arrow-line"><path class="connection real" stroke-dasharray="" d="  M522.46,340.68 L465.06,407.25" style="stroke: rgb(245, 166, 35); stroke-opacity: 1; stroke-width: 3; fill: rgb(208, 2, 27); fill-opacity: 1;"/><g stroke="none" fill="rgb(245,166,35)" fill-opacity="1" transform="matrix(0.6530241527544607,-0.7573370820970796,0.7573370820970796,0.6530241527544607,461.79479587306616,411.03817720352737)" style="stroke: none; fill: rgb(245, 166, 35); stroke-width: 3;"><path d=" M13.22,-6.35 L0,0 L13.22,6.35 L8.78,0 Z"/></g></g><g class="arrow-line"><path class="connection real" stroke-dasharray="" d="  M237.36,502.35 L323.5,465.16" style="stroke: rgb(208, 2, 27); stroke-opacity: 1; stroke-width: 3; fill: rgb(208, 2, 27); fill-opacity: 1;"/><g stroke="none" fill="rgb(208,2,27)" fill-opacity="1" transform="matrix(-0.9181008531004029,0.3963468475165564,-0.3963468475165564,-0.9181008531004029,328.0914146881387,463.1802456265571)" style="stroke: none; fill: rgb(208, 2, 27); stroke-width: 3;"><path d=" M13.22,-6.35 L0,0 L13.22,6.35 L8.78,0 Z"/></g></g><g class="arrow-line"><path class="connection real" stroke-dasharray="" d="  M32.94,372.52 L60.22,372.28" style="stroke: rgb(74, 144, 226); stroke-opacity: 1; stroke-width: 4; fill: rgb(74, 144, 226); fill-opacity: 1;"/><g stroke="none" fill="rgb(74,144,226)" fill-opacity="1" transform="matrix(-0.9999603847661206,0.008901061644096278,-0.008901061644096278,-0.9999603847661206,66.2161987934223,372.2272467917434)" style="stroke: none; fill: rgb(74, 144, 226); stroke-width: 4;"><path d=" M16.97,-8.15 L0,0 L16.97,8.15 Z"/></g></g><g class="arrow-line"><path class="connection real" stroke-dasharray="" d="  M232.37,417.52 L323.69,299.73" style="stroke: rgb(65, 117, 5); stroke-opacity: 1; stroke-width: 3; fill: none; fill-opacity: 1;"/><g stroke="none" fill="rgb(65,117,5)" fill-opacity="1" transform="matrix(-0.6126312001868028,0.7903689091542491,-0.7903689091542491,-0.6126312001868028,326.75269618505115,295.77685950413223)" style="stroke: none; fill: rgb(65, 117, 5); stroke-width: 3;"><path d=" M13.22,-6.35 L0,0 L13.22,6.35 L8.78,0 Z"/></g></g><g class="composite-shape"><path class="real" d=" M326.75,295.78 C326.75,286.96 333.97,279.81 342.86,279.81 C351.76,279.81 358.97,286.96 358.97,295.78 C358.97,304.6 351.76,311.74 342.86,311.74 C333.97,311.74 326.75,304.6 326.75,295.78 Z" style="stroke-width: 1; stroke: rgb(0, 0, 0); fill: rgb(245, 158, 11); fill-opacity: 1;"/></g><g class="composite-shape"><path class="real" d=" M520.14,497.36 C520.14,488.54 527.36,481.39 536.25,481.39 C545.15,481.39 552.37,488.54 552.37,497.36 C552.37,506.18 545.15,513.33 536.25,513.33 C527.36,513.33 520.14,506.18 520.14,497.36 Z" style="stroke-width: 1; stroke: rgb(0, 0, 0); fill: rgb(245, 158, 11); fill-opacity: 1;"/></g><g class="composite-shape"><path class="real" d=" M433.58,334.7 C433.58,325.88 440.79,318.73 449.69,318.73 C458.59,318.73 465.8,325.88 465.8,334.7 C465.8,343.51 458.59,350.66 449.69,350.66 C440.79,350.66 433.58,343.51 433.58,334.7 Z" style="stroke-width: 1; stroke: rgb(0, 0, 0); fill: rgb(245, 158, 11); fill-opacity: 1;"/></g><g class="arrow-line"><path class="connection real" stroke-dasharray="" d="  M446.76,262.85 L365.32,366.44" style="stroke: rgb(245, 166, 35); stroke-opacity: 1; stroke-width: 3; fill: rgb(208, 2, 27); fill-opacity: 1;"/><g stroke="none" fill="rgb(245,166,35)" fill-opacity="1" transform="matrix(0.6179968368992083,-0.786180583315674,0.786180583315674,0.6179968368992083,362.2324866814245,370.37239438688766)" style="stroke: none; fill: rgb(245, 166, 35); stroke-width: 3;"><path d=" M13.22,-6.35 L0,0 L13.22,6.35 L8.78,0 Z"/></g></g><g class="arrow-line"><path class="connection real" stroke-dasharray="" d="  M520.47,551.25 L365.74,465.6" style="stroke: rgb(245, 166, 35); stroke-opacity: 1; stroke-width: 3; fill: rgb(208, 2, 27); fill-opacity: 1;"/><g stroke="none" fill="rgb(245,166,35)" fill-opacity="1" transform="matrix(0.8748734329603794,0.48435160400283633,-0.48435160400283633,0.8748734329603794,361.37037498783695,463.18024562655705)" style="stroke: none; fill: rgb(245, 166, 35); stroke-width: 3;"><path d=" M13.22,-6.35 L0,0 L13.22,6.35 L8.78,0 Z"/></g></g><g class="arrow-line"><path class="connection real" stroke-dasharray="" d="  M237.61,431 L324.79,373.14" style="stroke: rgb(245, 166, 35); stroke-opacity: 1; stroke-width: 3; fill: rgb(208, 2, 27); fill-opacity: 1;"/><g stroke="none" fill="rgb(245,166,35)" fill-opacity="1" transform="matrix(-0.8332108816594288,0.5529553568637501,-0.5529553568637501,-0.8332108816594288,328.95352638172625,370.3723943868876)" style="stroke: none; fill: rgb(245, 166, 35); stroke-width: 3;"><path d=" M13.22,-6.35 L0,0 L13.22,6.35 L8.78,0 Z"/></g></g><g class="arrow-line"><path class="connection real" stroke-dasharray="" d="  M462.65,246.88 L511.16,248.69" style="stroke: rgb(65, 117, 5); stroke-opacity: 1; stroke-width: 3; fill: none; fill-opacity: 1;"/><g stroke="none" fill="rgb(65,117,5)" fill-opacity="1" transform="matrix(-0.9993025681157919,-0.03734136255123846,0.03734136255123846,-0.9993025681157919,516.1564618754278,248.87396694214874)" style="stroke: none; fill: rgb(65, 117, 5); stroke-width: 3;"><path d=" M13.22,-6.35 L0,0 L13.22,6.35 L8.78,0 Z"/></g></g><g class="arrow-line"><path class="connection real" stroke-dasharray="" d="  M432.92,252.87 L361.45,288.55" style="stroke: rgb(65, 117, 5); stroke-opacity: 1; stroke-width: 3; fill: none; fill-opacity: 1;"/><g stroke="none" fill="rgb(65,117,5)" fill-opacity="1" transform="matrix(0.8946226386991029,-0.4468224863713267,0.4468224863713267,0.8946226386991029,356.98012552301253,290.78719008264466)" style="stroke: none; fill: rgb(65, 117, 5); stroke-width: 3;"><path d=" M13.22,-6.35 L0,0 L13.22,6.35 L8.78,0 Z"/></g></g><g class="arrow-line"><path class="connection real" stroke-dasharray="" d="  M520.2,556.82 L245.28,509.68" style="stroke: rgb(65, 117, 5); stroke-opacity: 1; stroke-width: 3; fill: none; fill-opacity: 1;"/><g stroke="none" fill="rgb(65,117,5)" fill-opacity="1" transform="matrix(0.9856151131419448,0.1690054695747783,-0.1690054695747783,0.9856151131419448,240.34728033472805,508.8357438016529)" style="stroke: none; fill: rgb(65, 117, 5); stroke-width: 3;"><path d=" M13.22,-6.35 L0,0 L13.22,6.35 L8.78,0 Z"/></g></g><g class="arrow-line"><path class="connection real" stroke-dasharray="" d="  M520.14,497.36 L366.26,464.23" style="stroke: rgb(208, 2, 27); stroke-opacity: 1; stroke-width: 3; fill: rgb(208, 2, 27); fill-opacity: 1;"/><g stroke="none" fill="rgb(208,2,27)" fill-opacity="1" transform="matrix(0.9775999377647907,0.21047175982130553,-0.21047175982130553,0.9775999377647907,361.37037498783695,463.18024562655705)" style="stroke: none; fill: rgb(208, 2, 27); stroke-width: 3;"><path d=" M13.22,-6.35 L0,0 L13.22,6.35 L8.78,0 Z"/></g></g><g class="arrow-line"><path class="connection real" stroke-dasharray="" d="  M224.24,524.3 L223.7,561.81" style="stroke: rgb(74, 144, 226); stroke-opacity: 1; stroke-width: 3; fill: none; fill-opacity: 1;"/><g stroke="none" fill="rgb(74,144,226)" fill-opacity="1" transform="matrix(0.014485726138606268,-0.999895076364634,0.999895076364634,0.014485726138606268,223.62436473814842,566.8115139065894)" style="stroke: none; fill: rgb(74, 144, 226); stroke-width: 3;"><path d=" M13.22,-6.35 L0,0 L13.22,6.35 L8.78,0 Z"/></g></g><g class="arrow-line"><path class="connection real" stroke-dasharray="" d="  M326.75,295.78 L246.32,356.02" style="stroke: rgb(74, 144, 226); stroke-opacity: 1; stroke-width: 3; fill: none; fill-opacity: 1;"/><g stroke="none" fill="rgb(74,144,226)" fill-opacity="1" transform="matrix(0.8004176131778041,-0.5994427783489823,0.5994427783489823,0.8004176131778041,242.31603025468482,359.01732325400843)" style="stroke: none; fill: rgb(74, 144, 226); stroke-width: 3;"><path d=" M13.22,-6.35 L0,0 L13.22,6.35 L8.78,0 Z"/></g></g><g class="arrow-line"><path class="connection real" stroke-dasharray="" d="  M535.73,344.68 L536.24,476.39" style="stroke: rgb(208, 2, 27); stroke-opacity: 1; stroke-width: 3; fill: rgb(208, 2, 27); fill-opacity: 1;"/><g stroke="none" fill="rgb(208,2,27)" fill-opacity="1" transform="matrix(-0.0038397149192434476,-0.9999926282674982,0.9999926282674982,-0.0038397149192434476,536.2544861678393,481.39256198347107)" style="stroke: none; fill: rgb(208, 2, 27); stroke-width: 3;"><path d=" M13.22,-6.35 L0,0 L13.22,6.35 L8.78,0 Z"/></g></g><g class="arrow-line"><path class="connection real" stroke-dasharray="" d="  M30.94,347.73 L60.22,348.18" style="stroke: rgb(155, 155, 155); stroke-opacity: 1; stroke-width: 4; fill: rgb(74, 144, 226); fill-opacity: 1;"/><g stroke="none" fill="rgb(155,155,155)" fill-opacity="1" transform="matrix(-0.9998793586966922,-0.015532805679964757,0.015532805679964757,-0.9998793586966922,66.21619879342231,348.276833568603)" style="stroke: none; fill: rgb(155, 155, 155); stroke-width: 4;"><path d=" M16.97,-8.15 L0,0 L16.97,8.15 Z"/></g></g><g class="arrow-line"><path class="connection real" stroke-dasharray="" d="  M434.76,429.25 L365.91,461.08" style="stroke: rgb(155, 155, 155); stroke-opacity: 1; stroke-width: 3; fill: rgb(208, 2, 27); fill-opacity: 1;"/><g stroke="none" fill="rgb(155,155,155)" fill-opacity="1" transform="matrix(0.9077042565081084,-0.4196105131155107,0.4196105131155107,0.9077042565081084,361.37037498783695,463.18024562655705)" style="stroke: none; fill: rgb(155, 155, 155); stroke-width: 3;"><path d=" M13.22,-6.35 L0,0 L13.22,6.35 L8.78,0 Z"/></g></g><g class="arrow-line"><path class="connection real" stroke-dasharray="" d="  M326.75,295.78 L235.28,251.07" style="stroke: rgb(208, 2, 27); stroke-opacity: 1; stroke-width: 3; fill: rgb(208, 2, 27); fill-opacity: 1;"/><g stroke="none" fill="rgb(208,2,27)" fill-opacity="1" transform="matrix(0.8984111531194788,0.43915532554043823,-0.43915532554043823,0.8984111531194788,230.78839038052308,248.8739669421488)" style="stroke: none; fill: rgb(208, 2, 27); stroke-width: 3;"><path d=" M13.22,-6.35 L0,0 L13.22,6.35 L8.78,0 Z"/></g></g><g class="composite-shape"><path class="real" d=" M884.05,246.96 C884.05,241.4 888.8,236.9 894.65,236.9 C900.51,236.9 905.25,241.4 905.25,246.96 C905.25,252.51 900.51,257.02 894.65,257.02 C888.8,257.02 884.05,252.51 884.05,246.96 Z" style="stroke-width: 1; stroke: rgb(65, 117, 5); stroke-opacity: 1; fill: rgb(126, 211, 33); fill-opacity: 1;"/></g><g class="composite-shape"><path class="real" d=" M923.93,275.9 C923.93,270.34 928.67,265.84 934.53,265.84 C940.38,265.84 945.13,270.34 945.13,275.9 C945.13,281.45 940.38,285.96 934.53,285.96 C928.67,285.96 923.93,281.45 923.93,275.9 Z" style="stroke-width: 1; stroke: rgb(65, 117, 5); stroke-opacity: 1; fill: rgb(126, 211, 33); fill-opacity: 1;"/></g><g class="composite-shape"><path class="real" d=" M888.04,314.82 C888.04,309.26 892.79,304.76 898.64,304.76 C904.5,304.76 909.24,309.26 909.24,314.82 C909.24,320.37 904.5,324.88 898.64,324.88 C892.79,324.88 888.04,320.37 888.04,314.82 Z" style="stroke-width: 1; stroke: rgb(65, 117, 5); stroke-opacity: 1; fill: rgb(126, 211, 33); fill-opacity: 1;"/></g><g class="composite-shape"><path class="real" d=" M848.17,277.89 C848.17,272.34 852.91,267.83 858.77,267.83 C864.62,267.83 869.37,272.34 869.37,277.89 C869.37,283.45 864.62,287.95 858.77,287.95 C852.91,287.95 848.17,283.45 848.17,277.89 Z" style="stroke-width: 1; stroke: rgb(65, 117, 5); stroke-opacity: 1; fill: rgb(126, 211, 33); fill-opacity: 1;"/></g><g class="arrow-line"><path class="connection real" stroke-dasharray="" d="  M726.82,438.48 L727.83,509.07" style="stroke: rgb(245, 166, 35); stroke-opacity: 1; stroke-width: 4; fill: none; fill-opacity: 1;"/><g stroke="none" fill="rgb(245,166,35)" fill-opacity="1" transform="matrix(-0.014485726138606636,-0.999895076364634,0.999895076364634,-0.014485726138606636,727.91948347067,515.0728305785124)" style="stroke: none; fill: rgb(245, 166, 35); stroke-width: 4;"><path d=" M16.97,-8.15 L0,0 L16.97,8.15 Z"/></g></g><g class="composite-shape"><path class="real" d=" M202.22,584.59 L223.62,566.81 L248.58,577.9 L227.18,595.68 Z" style="stroke-width: 1; stroke: rgb(80, 227, 194); stroke-opacity: 1; fill: rgb(74, 144, 226); fill-opacity: 1;"/></g><g class="composite-shape"><path class="real" d=" M26.45,442.61 L37.12,433.75 L47.91,438.54 L37.24,447.41 Z" style="stroke-width: 1; stroke: rgb(80, 227, 194); stroke-opacity: 1; fill: rgb(74, 144, 226); fill-opacity: 1;"/></g><g class="composite-shape"><path class="real" d=" M430.88,246.88 C430.88,238.06 437.99,230.91 446.76,230.91 C455.54,230.91 462.65,238.06 462.65,246.88 C462.65,255.7 455.54,262.85 446.76,262.85 C437.99,262.85 430.88,255.7 430.88,246.88 Z" style="stroke-width: 1; stroke: rgb(65, 117, 5); stroke-opacity: 1; fill: rgb(126, 211, 33); fill-opacity: 1;"/></g><g class="composite-shape"><path class="real" d=" M205.84,431 C205.84,422.18 212.95,415.03 221.72,415.03 C230.49,415.03 237.61,422.18 237.61,431 C237.61,439.82 230.49,446.96 221.72,446.96 C212.95,446.96 205.84,439.82 205.84,431 Z" style="stroke-width: 1; stroke: rgb(65, 117, 5); stroke-opacity: 1; fill: rgb(126, 211, 33); fill-opacity: 1;"/></g><g class="composite-shape"><path class="real" d=" M520.2,556.82 C520.2,548 527.31,540.85 536.08,540.85 C544.85,540.85 551.96,548 551.96,556.82 C551.96,565.64 544.85,572.78 536.08,572.78 C527.31,572.78 520.2,565.64 520.2,556.82 Z" style="stroke-width: 1; stroke: rgb(65, 117, 5); stroke-opacity: 1; fill: rgb(126, 211, 33); fill-opacity: 1;"/></g><g class="composite-shape"><path class="real" d=" M328.95,370.37 L335.19,352.16 L355.99,352.16 L362.23,370.37 L355.99,388.58 L335.19,388.58 Z" style="stroke-width: 1; stroke: rgb(0, 0, 0); fill: rgb(208, 2, 27); fill-opacity: 1;"/></g><g class="composite-shape"><path class="real" d=" M328.09,463.18 L334.33,444.97 L355.13,444.97 L361.37,463.18 L355.13,481.39 L334.33,481.39 Z" style="stroke-width: 1; stroke: rgb(0, 0, 0); fill: rgb(208, 2, 27); fill-opacity: 1;"/></g><g class="arrow-line"><path class="connection real" stroke-dasharray="" d="  M344.02,444.47 L345.06,393.58" style="stroke: rgb(208, 2, 27); stroke-opacity: 1; stroke-width: 3; fill: rgb(208, 2, 27); fill-opacity: 1;"/><g stroke="none" fill="rgb(208,2,27)" fill-opacity="1" transform="matrix(-0.020418933094800654,0.9997915118519811,-0.9997915118519811,-0.020418933094800654,345.1619506847816,388.5847107438017)" style="stroke: none; fill: rgb(208, 2, 27); stroke-width: 3;"><path d=" M13.22,-6.35 L0,0 L13.22,6.35 L8.78,0 Z"/></g></g><g class="composite-shape"><path class="real" d=" M197.51,248.87 L203.75,230.66 L224.55,230.66 L230.79,248.87 L224.55,267.09 L203.75,267.09 Z" style="stroke-width: 1; stroke: rgb(0, 0, 0); fill: rgb(208, 2, 27); fill-opacity: 1;"/></g></g><g/></g><g/><g/><g/></svg>
        <svg xmlns="http://www.w3.org/2000/svg" xmlns:xlink="http://www.w3.org/1999/xlink" width="1060" height="880" style="width:1060px;height:880px;font-family:Asana-Math, Asana;background:#FFF;"><g><g><g><text x="195.4765625" y="647.296875" style="white-space:pre;stroke:none;fill:rgb(0,0,0);fill-opacity:1;font-size:15px;font-family:Arial, Helvetica, sans-serif;font-weight:700;font-style:normal;dominant-baseline:text-before-edge;text-decoration:none;">Knowledge graph</text></g></g></g><g><g><g><text x="771.8359375" y="619.359375" style="white-space:pre;stroke:none;fill:rgb(0,0,0);fill-opacity:1;font-size:15px;font-family:Arial, Helvetica, sans-serif;font-weight:700;font-style:normal;dominant-baseline:text-before-edge;text-decoration:none;">Model  graph</text></g></g></g><g><g><g><text x="70.71875" y="292.2265625" style="white-space:pre;stroke:none;fill:rgb(0,0,0);fill-opacity:1;font-size:12.15px;font-family:Arial, Helvetica, sans-serif;font-weight:700;font-style:normal;dominant-baseline:text-before-edge;text-decoration:none;direction:rtl;text-anchor:end;">Assoc</text></g></g></g><g><g><g><text x="74.4765625" y="265.796875" style="white-space:pre;stroke:none;fill:rgb(0,0,0);fill-opacity:1;font-size:12.15px;font-family:Arial, Helvetica, sans-serif;font-weight:700;font-style:normal;dominant-baseline:text-before-edge;text-decoration:none;direction:rtl;text-anchor:end;">binds</text></g></g></g><g><g><g><text x="71.640625" y="319.296875" style="white-space:pre;stroke:none;fill:rgb(0,0,0);fill-opacity:1;font-size:12.15px;font-family:Arial, Helvetica, sans-serif;font-weight:700;font-style:normal;dominant-baseline:text-before-edge;text-decoration:none;direction:rtl;text-anchor:end;">Treat</text></g></g></g><g><g><g><text x="505.25" y="296.4765625" style="white-space:pre;stroke:none;fill:rgb(0,0,0);fill-opacity:1;font-size:12.15px;font-family:Arial, Helvetica, sans-serif;font-weight:700;font-style:normal;dominant-baseline:text-before-edge;text-decoration:none;direction:rtl;text-anchor:end;">Metformin</text></g></g></g><g><g><g><text x="428.6875" y="210.8125" style="white-space:pre;stroke:none;fill:rgb(0,0,0);fill-opacity:1;font-size:12.15px;font-family:Arial, Helvetica, sans-serif;font-weight:700;font-style:normal;dominant-baseline:text-before-edge;text-decoration:none;direction:rtl;text-anchor:end;">Aspirin</text></g></g></g><g><g><g><text x="194.15625" y="449.15625" style="white-space:pre;stroke:none;fill:rgb(0,0,0);fill-opacity:1;font-size:12.15px;font-family:Arial, Helvetica, sans-serif;font-weight:700;font-style:normal;dominant-baseline:text-before-edge;text-decoration:none;direction:rtl;text-anchor:end;">Ibuprofen</text></g></g></g><g><g><g><text x="188.6953125" y="311.5" style="white-space:pre;stroke:none;fill:rgb(0,0,0);fill-opacity:1;font-size:10.8px;font-family:Arial, Helvetica, sans-serif;font-weight:700;font-style:normal;dominant-baseline:text-before-edge;text-decoration:none;direction:rtl;text-anchor:end;">Inflammatory </text></g></g><g><g><text x="200.1015625" y="330.390625" style="white-space:pre;stroke:none;fill:rgb(0,0,0);fill-opacity:1;font-size:10.8px;font-family:Arial, Helvetica, sans-serif;font-weight:700;font-style:normal;dominant-baseline:text-before-edge;text-decoration:none;direction:rtl;text-anchor:end;">response</text></g></g></g><g><g><g><text x="130.640625" y="599.203125" style="white-space:pre;stroke:none;fill:rgb(0,0,0);fill-opacity:1;font-size:12.15px;font-family:Arial, Helvetica, sans-serif;font-weight:700;font-style:normal;dominant-baseline:text-before-edge;text-decoration:none;direction:rtl;text-anchor:end;">Cholesterol biosynthetic process</text></g></g></g><g><g><g><text x="412.1875" y="449.171875" style="white-space:pre;stroke:none;fill:rgb(0,0,0);fill-opacity:1;font-size:12.15px;font-family:Arial, Helvetica, sans-serif;font-weight:700;font-style:normal;dominant-baseline:text-before-edge;text-decoration:none;direction:rtl;text-anchor:end;">Type 2 Diabetes</text></g></g></g><g><g><g><text x="199.9921875" y="214.171875" style="white-space:pre;stroke:none;fill:rgb(0,0,0);fill-opacity:1;font-size:12.15px;font-family:Arial, Helvetica, sans-serif;font-weight:700;font-style:normal;dominant-baseline:text-before-edge;text-decoration:none;direction:rtl;text-anchor:end;">Pain</text></g></g></g><g><g><g><text x="204.1640625" y="480.078125" style="white-space:pre;stroke:none;fill:rgb(0,0,0);fill-opacity:1;font-size:12.15px;font-family:Arial, Helvetica, sans-serif;font-weight:700;font-style:normal;dominant-baseline:text-before-edge;text-decoration:none;direction:rtl;text-anchor:end;">HMGCR</text></g></g></g><g><g><g><text x="512.0234375" y="217.640625" style="white-space:pre;stroke:none;fill:rgb(0,0,0);fill-opacity:1;font-size:12.15px;font-family:Arial, Helvetica, sans-serif;font-weight:700;font-style:normal;dominant-baseline:text-before-edge;text-decoration:none;direction:rtl;text-anchor:end;">PTGS1</text></g></g></g><g><g><g><text x="66.96875" y="364.265625" style="white-space:pre;stroke:none;fill:rgb(0,0,0);fill-opacity:1;font-size:12.15px;font-family:Arial, Helvetica, sans-serif;font-weight:700;font-style:normal;dominant-baseline:text-before-edge;text-decoration:none;direction:rtl;text-anchor:end;">participates_in</text></g></g></g><g><g><g><text x="287.8984375" y="263.546875" style="white-space:pre;stroke:none;fill:rgb(0,0,0);fill-opacity:1;font-size:12.15px;font-family:Arial, Helvetica, sans-serif;font-weight:700;font-style:normal;dominant-baseline:text-before-edge;text-decoration:none;direction:rtl;text-anchor:end;">PTGS2</text></g></g></g><g><g><g><text x="546.1640625" y="463.140625" style="white-space:pre;stroke:none;fill:rgb(0,0,0);fill-opacity:1;font-size:12.15px;font-family:Arial, Helvetica, sans-serif;font-weight:700;font-style:normal;dominant-baseline:text-before-edge;text-decoration:none;direction:rtl;text-anchor:end;">LDLR</text></g></g></g><g><g><g><text x="429.2890625" y="302.46875" style="white-space:pre;stroke:none;fill:rgb(0,0,0);fill-opacity:1;font-size:12.15px;font-family:Arial, Helvetica, sans-serif;font-weight:700;font-style:normal;dominant-baseline:text-before-edge;text-decoration:none;direction:rtl;text-anchor:end;">TCF7L2</text></g></g></g><g><g><g><text x="499.4609375" y="583.03125" style="white-space:pre;stroke:none;fill:rgb(0,0,0);fill-opacity:1;font-size:12.15px;font-family:Arial, Helvetica, sans-serif;font-weight:700;font-style:normal;dominant-baseline:text-before-edge;text-decoration:none;direction:rtl;text-anchor:end;">Atorvastatin</text></g></g></g><g><g><g><text x="279.3125" y="485.828125" style="white-space:pre;stroke:none;fill:rgb(0,0,0);fill-opacity:1;font-size:12.15px;font-family:Arial, Helvetica, sans-serif;font-weight:700;font-style:normal;dominant-baseline:text-before-edge;text-decoration:none;direction:rtl;text-anchor:end;">Hypercholesterolemia</text></g></g></g><g><g><g><text x="302.125" y="333.390625" style="white-space:pre;stroke:none;fill:rgb(0,0,0);fill-opacity:1;font-size:12.15px;font-family:Arial, Helvetica, sans-serif;font-weight:700;font-style:normal;dominant-baseline:text-before-edge;text-decoration:none;direction:rtl;text-anchor:end;">Inflammation</text></g></g></g><g><g><g><text x="70.640625" y="341.25" style="white-space:pre;stroke:none;fill:rgb(0,0,0);fill-opacity:1;font-size:12.15px;font-family:Arial, Helvetica, sans-serif;font-weight:700;font-style:normal;dominant-baseline:text-before-edge;text-decoration:none;direction:rtl;text-anchor:end;">comorbid_with </text></g></g></g><g><g><g><text x="51.125" y="433.59375" style="white-space:pre;stroke:none;fill:rgb(0,0,0);fill-opacity:1;font-size:12.15px;font-family:Arial, Helvetica, sans-serif;font-weight:700;font-style:normal;dominant-baseline:text-before-edge;text-decoration:none;direction:rtl;text-anchor:end;">Biological Process</text></g></g></g><g><g><g><text x="53.59375" y="466.390625" style="white-space:pre;stroke:none;fill:rgb(0,0,0);fill-opacity:1;font-size:12.15px;font-family:Arial, Helvetica, sans-serif;font-weight:700;font-style:normal;dominant-baseline:text-before-edge;text-decoration:none;direction:rtl;text-anchor:end;">Disease</text></g></g></g><g><g><g><text x="54.046875" y="494.109375" style="white-space:pre;stroke:none;fill:rgb(0,0,0);fill-opacity:1;font-size:12.15px;font-family:Arial, Helvetica, sans-serif;font-weight:700;font-style:normal;dominant-baseline:text-before-edge;text-decoration:none;direction:rtl;text-anchor:end;">Drug</text></g></g></g><g><g><g><text x="921.890625" y="288.625" style="white-space:pre;stroke:none;fill:rgb(0,0,0);fill-opacity:1;font-size:9.45px;font-family:Arial, Helvetica, sans-serif;font-weight:700;font-style:normal;dominant-baseline:text-before-edge;text-decoration:none;direction:rtl;text-anchor:end;">Aspirin</text></g></g></g><g><g><g><text x="877.1875" y="328.46875" style="white-space:pre;stroke:none;fill:rgb(0,0,0);fill-opacity:1;font-size:9.45px;font-family:Arial, Helvetica, sans-serif;font-weight:700;font-style:normal;dominant-baseline:text-before-edge;text-decoration:none;direction:rtl;text-anchor:end;">Atorvastatin</text></g></g></g><g><g><g><text x="841.15625" y="289.5625" style="white-space:pre;stroke:none;fill:rgb(0,0,0);fill-opacity:1;font-size:9.45px;font-family:Arial, Helvetica, sans-serif;font-weight:700;font-style:normal;dominant-baseline:text-before-edge;text-decoration:none;direction:rtl;text-anchor:end;">Metformin</text></g></g></g><g><g><g><text x="876.40625" y="217.796875" style="white-space:pre;stroke:none;fill:rgb(0,0,0);fill-opacity:1;font-size:9.45px;font-family:Arial, Helvetica, sans-serif;font-weight:700;font-style:normal;dominant-baseline:text-before-edge;text-decoration:none;direction:rtl;text-anchor:end;">Ibuprofen</text></g></g></g><g><g><g><text x="710.90625" y="403.6796875" style="white-space:pre;stroke:none;fill:rgb(255,255,255);fill-opacity:1;font-size:9.45px;font-family:Arial, Helvetica, sans-serif;font-weight:700;font-style:normal;dominant-baseline:text-before-edge;text-decoration:none;direction:rtl;text-anchor:end;">Drug</text></g></g></g><g><g><g><text x="711.5" y="536.0234375" style="white-space:pre;stroke:none;fill:rgb(255,255,255);fill-opacity:1;font-size:9.45px;font-family:Arial, Helvetica, sans-serif;font-weight:700;font-style:normal;dominant-baseline:text-before-edge;text-decoration:none;direction:rtl;text-anchor:end;">Disease</text></g></g></g><g><g><g><text x="915.671875" y="527.9296875" style="white-space:pre;stroke:none;fill:rgb(255,255,255);fill-opacity:1;font-size:9.45px;font-family:Arial, Helvetica, sans-serif;font-weight:700;font-style:normal;dominant-baseline:text-before-edge;text-decoration:none;direction:rtl;text-anchor:end;">Gene</text></g></g></g><g><g><g><text x="899.15625" y="386.953125" style="white-space:pre;stroke:none;fill:rgb(255,255,255);fill-opacity:1;font-size:8.4px;font-family:Arial, Helvetica, sans-serif;font-weight:700;font-style:normal;dominant-baseline:text-before-edge;text-decoration:none;direction:rtl;text-anchor:end;">Biological </text></g></g><g><g><text x="899.15625" y="403.75" style="white-space:pre;stroke:none;fill:rgb(255,255,255);fill-opacity:1;font-size:8.4px;font-family:Arial, Helvetica, sans-serif;font-weight:700;font-style:normal;dominant-baseline:text-before-edge;text-decoration:none;direction:rtl;text-anchor:end;">Process</text></g></g></g><g><g><g><text x="54.984375" y="519.9375" style="white-space:pre;stroke:none;fill:rgb(0,0,0);fill-opacity:1;font-size:12.15px;font-family:Arial, Helvetica, sans-serif;font-weight:700;font-style:normal;dominant-baseline:text-before-edge;text-decoration:none;direction:rtl;text-anchor:end;">Gene</text></g></g></g></svg>
</svg>
